<svg xmlns="http://www.w3.org/2000/svg" width="154" height="153.577" viewBox="0 0 154 153.577">
  <g id="reputation" transform="translate(0 -0.212)">
    <path id="Path" d="M56.113,0h-8.86A47.306,47.306,0,0,0,0,47.253a4.43,4.43,0,0,0,4.43,4.43H98.936a4.43,4.43,0,0,0,4.43-4.43A47.306,47.306,0,0,0,56.113,0Z" transform="translate(25.317 102.105)" fill="#b57ad2"/>
    <path id="Path-2" data-name="Path" d="M51.683,0h-4.43A47.306,47.306,0,0,0,0,47.253a4.43,4.43,0,0,0,4.43,4.43H51.683Z" transform="translate(25.317 102.105)" fill="#b57ad2"/>
    <path id="Path-3" data-name="Path" d="M28.057,0A28.088,28.088,0,0,0,0,28.057v1.479a28.057,28.057,0,1,0,56.113,0V28.057A28.088,28.088,0,0,0,28.057,0Z" transform="translate(48.943 53.374)" fill="#b57ad2"/>
    <path id="Path-4" data-name="Path" d="M0,28.056v1.479A28.088,28.088,0,0,0,28.057,57.592V0A28.088,28.088,0,0,0,0,28.056Z" transform="translate(48.943 53.374)" fill="#b57ad2"/>
    <path id="Path-5" data-name="Path" d="M44.582,14.307,33.931,10.951,27.447,1.858a4.43,4.43,0,0,0-7.214,0L13.75,10.951,3.1,14.307A4.43,4.43,0,0,0,.869,21.168l6.644,8.976-.1,11.167a4.43,4.43,0,0,0,5.836,4.24l10.59-3.545,10.59,3.545a4.43,4.43,0,0,0,5.836-4.24l-.1-11.167,6.644-8.976a4.43,4.43,0,0,0-2.229-6.861Z" transform="translate(53.16 0.212)" fill="#b57ad2"/>
    <path id="Path-6" data-name="Path" d="M20.233,1.858,13.75,10.951,3.1,14.307A4.43,4.43,0,0,0,.869,21.168l6.644,8.976-.1,11.167a4.43,4.43,0,0,0,5.836,4.24l10.59-3.545V0A4.43,4.43,0,0,0,20.233,1.858Z" transform="translate(53.16 0.212)" fill="#b57ad2"/>
    <path id="Path-7" data-name="Path" d="M47.464,17.163a4.43,4.43,0,0,0-2.882-2.856L33.931,10.951,27.447,1.858a4.43,4.43,0,0,0-7.214,0L13.75,10.951,3.1,14.307A4.43,4.43,0,0,0,.869,21.168l6.644,8.976-.1,11.167a4.43,4.43,0,0,0,5.836,4.241l10.59-3.545,10.59,3.545a4.43,4.43,0,0,0,5.836-4.241l-.1-11.167,6.644-8.976A4.429,4.429,0,0,0,47.464,17.163Z" transform="translate(106.319 13.504)" fill="#b57ad2"/>
    <path id="Path-8" data-name="Path" d="M44.582,14.307,33.931,10.951,27.447,1.858a4.43,4.43,0,0,0-7.214,0L13.75,10.951,3.1,14.307A4.43,4.43,0,0,0,.869,21.168l6.644,8.976-.1,11.167a4.431,4.431,0,0,0,5.836,4.24l10.59-3.545,10.59,3.545a4.43,4.43,0,0,0,5.836-4.24l-.1-11.167,6.644-8.976a4.43,4.43,0,0,0-2.23-6.861Z" transform="translate(0 13.504)" fill="#b57ad2"/>
  </g>
</svg>
