<svg id="trustworthy" xmlns="http://www.w3.org/2000/svg" width="121.047" height="122.77" viewBox="0 0 121.047 122.77">
  <g id="Group" transform="translate(1.952 1.952)">
    <path id="Path" d="M3.417,10.914A15.637,15.637,0,0,0,18.313,0a15.248,15.248,0,0,0,4.549,1.523v.02l7.888,24.99L17.083,24.58,7.321,34.342l-3.9-12.69L0,10.543v-.02a15.149,15.149,0,0,0,3.417.39Z" transform="translate(43.44 82.8)" fill="#fff"/>
    <path id="Path-2" data-name="Path" d="M13.667,24.58,0,26.533,7.888,1.542v-.02A15.248,15.248,0,0,0,12.437,0a15.6,15.6,0,0,0,11.48,10.523v.02l3.417,11.109-3.9,12.69Z" transform="translate(19.524 82.8)" fill="#fff"/>
    <path id="Path-3" data-name="Path" d="M74.971,60.524a30.8,30.8,0,0,1-4.686-16.341V31.238h4.569a26.826,26.826,0,0,0,8.9-1.523,15.61,15.61,0,0,0-22-18.8,15.623,15.623,0,0,0-29.793,0A15.607,15.607,0,0,0,10.914,31.96a15.623,15.623,0,0,0,0,29.793,15.6,15.6,0,0,0,16.5,22.57A15.248,15.248,0,0,0,31.96,82.8,15.6,15.6,0,0,0,43.44,93.324a15.148,15.148,0,0,0,3.417.39A15.637,15.637,0,0,0,61.754,82.8,15.248,15.248,0,0,0,66.3,84.323a15.611,15.611,0,0,0,18.216-14.1A30.809,30.809,0,0,1,74.971,60.524Z" transform="translate(0 0)" fill="#fff"/>
    <path id="Path-4" data-name="Path" d="M27,36.139,25.381,41l-5.291.761a.176.176,0,0,0-.1.02,9.746,9.746,0,0,0-8.278,9.645v4.2a31.24,31.24,0,1,1,46.584-40H54.667V28.563A30.8,30.8,0,0,0,59.352,44.9h-.02a30.956,30.956,0,0,1-8.571,10.7V51.426a9.746,9.746,0,0,0-8.278-9.645.176.176,0,0,0-.1-.02L37.1,41l-1.62-4.861a9.788,9.788,0,0,0,5.33-6.853l1.952-2.792A11.87,11.87,0,0,0,33.034,7.81H29.442a11.873,11.873,0,0,0-9.723,18.684l1.952,2.792a9.772,9.772,0,0,0,2.655,4.959Z" transform="translate(15.619 15.619)" fill="#fff"/>
    <path id="Path-5" data-name="Path" d="M25.186,18.684l-1.952,2.792a9.2,9.2,0,0,0,.2-1.952V16.966a3.916,3.916,0,0,0-3.26-3.846L16.361,12.5a7.7,7.7,0,0,1-4.178-2.148l-.02.02L7.595,12.2A5.83,5.83,0,0,0,3.9,17.63v1.894a9.2,9.2,0,0,0,.2,1.952L2.148,18.684A11.873,11.873,0,0,1,11.87,0h3.592a11.873,11.873,0,0,1,9.723,18.684Z" transform="translate(33.19 23.429)" fill="#fff"/>
    <path id="Path-6" data-name="Path" d="M39.048,9.645v4.178A30.941,30.941,0,0,1,19.524,20.7,31.079,31.079,0,0,1,0,13.842v-4.2A9.746,9.746,0,0,1,8.278,0l5.389,8.981,5.857-5.857,5.857,5.857L30.77,0A9.746,9.746,0,0,1,39.048,9.645Z" transform="translate(27.333 57.4)" fill="#fff"/>
    <path id="Path-7" data-name="Path" d="M5.389,0l5.857,3.9L5.389,9.762,0,.781A.176.176,0,0,1,.1.761Z" transform="translate(35.611 56.619)" fill="#fff"/>
    <path id="Path-8" data-name="Path" d="M11.246.781,5.857,9.762,0,3.9,5.857,0l5.291.761a.176.176,0,0,1,.1.02Z" transform="translate(46.857 56.619)" fill="#fff"/>
    <path id="Path-9" data-name="Path" d="M5.857.957A9.847,9.847,0,0,0,10.094,0l1.62,4.861-5.857,3.9L0,4.861,1.62,0Z" transform="translate(41 51.758)" fill="#fff"/>
    <path id="Path-10" data-name="Path" d="M19.329,11.129a9.728,9.728,0,0,1-9.567,7.81l-4.237-.957L2.85,16.088A9.771,9.771,0,0,1,.2,11.129,9.2,9.2,0,0,1,0,9.176V7.282A5.83,5.83,0,0,1,3.69,1.855L8.259.02,8.278,0a7.7,7.7,0,0,0,4.178,2.148l3.807.625a3.916,3.916,0,0,1,3.26,3.846V9.176a9.2,9.2,0,0,1-.2,1.952Z" transform="translate(37.095 33.776)" fill="#fff"/>
    <path id="Path-11" data-name="Path" d="M46.857,7.81V20.754A30.958,30.958,0,0,1,23.429,50.762,30.986,30.986,0,0,1,0,20.754V7.81H4.569a26.826,26.826,0,0,0,8.9-1.523A26.887,26.887,0,0,0,23.429,0a26.656,26.656,0,0,0,18.86,7.81Z" transform="translate(70.286 23.429)" fill="#fff"/>
  </g>
  <g id="Group-2" data-name="Group">
    <path id="Shape" d="M48.81,113.043l-2.992,9.727L34.454,111.4,18.68,113.658l7.961-25.215a17.538,17.538,0,0,1-16.4-23.659,17.578,17.578,0,0,1,0-31.949A17.577,17.577,0,0,1,32.835,10.244a17.578,17.578,0,0,1,31.949,0,17.534,17.534,0,0,1,23.573,18.14A24.794,24.794,0,0,0,94.287,24l1.38-1.38L97.047,24a24.547,24.547,0,0,0,17.473,7.238h6.527v14.9a32.827,32.827,0,0,1-24.907,31.9l-.474.12-.473-.12a32.852,32.852,0,0,1-7.278-2.78A17.494,17.494,0,0,1,70.977,88.441l7.964,25.217L63.167,111.4,51.8,122.77Z" transform="translate(0)" fill="#3490cf"/>
    <path id="Path-12" data-name="Path" d="M9.19,18.143,2.761,11.714,0,14.475l9.19,9.19,20.9-20.9L27.333,0Z" transform="translate(82.572 39.62)" fill="#3490cf"/>
  </g>
</svg>

