<svg id="process" xmlns="http://www.w3.org/2000/svg" width="122.33" height="122.347" viewBox="0 0 122.33 122.347">
  <g id="Group" transform="translate(31.602 12.235)">
    <path id="Shape" d="M36.981,21.207l1.76-3.67,3.686,1.753-1.761,3.671ZM29.548,17.7l1.76-3.67,3.686,1.753-1.72,3.671Zm-7.372-3.507,1.761-3.67,3.706,1.753-1.761,3.671Zm-7.392-3.507,1.76-3.67,3.707,1.753-1.761,3.671ZM7.412,7.178l1.659-3.67L12.777,5.26,11.119,8.932ZM0,3.67,1.761,0,5.468,1.835,3.727,5.424Z" transform="translate(16.525 0.204)" fill="#5a5a60"/>
    <path id="Shape-2" data-name="Shape" d="M0,21.676l3.584-2.038,2.047,3.569L2.048,25.265Zm7.208-3.915,3.6-2.039,2.048,3.568-3.6,2.141Zm7.146-3.976,3.584-2.039,2.048,3.589L16.4,17.353ZM21.542,9.89l3.6-2.039,2.047,3.568-3.6,2.039Zm7.167-3.936,3.584-2.039L34.34,7.484,30.756,9.543Zm7.167-3.915L39.459,0l2.048,3.569L37.922,5.608Z" transform="translate(16.34 72.368)" fill="#5a5a60"/>
    <path id="Path" d="M0,3.682,1.76,0l3.7,1.753L3.7,5.435Z" transform="translate(29.715 50.927)" fill="#5a5a60"/>
    <path id="Path-2" data-name="Path" d="M0,3.682,1.76,0l3.7,1.753L3.7,5.435Z" transform="translate(0.14 36.896)" fill="#5a5a60"/>
    <path id="Path-3" data-name="Path" d="M0,3.682,1.76,0l3.7,1.753L3.7,5.435Z" transform="translate(7.542 40.403)" fill="#5a5a60"/>
    <path id="Path-4" data-name="Path" d="M0,3.682,1.76,0l3.7,1.753L3.7,5.435Z" transform="translate(37.117 54.434)" fill="#5a5a60"/>
    <path id="Path-5" data-name="Path" d="M0,1.966,3.588,0,5.562,3.573,1.974,5.539Z" transform="translate(37.393 36.957)" fill="#5a5a60"/>
    <path id="Path-6" data-name="Path" d="M0,1.966,3.588,0,5.562,3.573,1.974,5.539Z" transform="translate(1.512 56.597)" fill="#5a5a60"/>
    <path id="Path-7" data-name="Path" d="M3.809,5.22,5.467,1.754,1.761,0,0,3.67,3.563,5.363.942,6.79l1.966,3.568L6.512,8.4,4.525,4.833Z" transform="translate(14.927 43.923)" fill="#5a5a60"/>
    <path id="Path-8" data-name="Path" d="M0,1.966,3.588,0,5.562,3.573,1.974,5.539Z" transform="translate(30.234 40.889)" fill="#5a5a60"/>
    <path id="Path-9" data-name="Path" d="M0,1.965,3.589,0,5.562,3.574,1.973,5.539Z" transform="translate(8.677 52.693)" fill="#5a5a60"/>
    <path id="Path-10" data-name="Path" d="M4.321,0,.737,1.958l.717,1.305L0,6.28,3.706,8.034l1.761-3.67L5.14,4.2l1.147-.632Z" transform="translate(22.32 44.82)" fill="#5a5a60"/>
  </g>
  <path id="Shape-3" data-name="Shape" d="M21.571,48.756l-1.509-.184-1.223-6.647a16.883,16.883,0,0,1-2.732-1.142L10.5,44.575l-1.183-.918A24.551,24.551,0,0,1,5.24,39.579L4.323,38.4,8.155,32.83A16.879,16.879,0,0,1,7.014,30.1L.367,28.874.184,27.365a22.928,22.928,0,0,1,0-5.792l.184-1.509,6.646-1.223a16.879,16.879,0,0,1,1.141-2.732L4.363,10.5,5.28,9.319A24.586,24.586,0,0,1,9.358,5.241l1.183-.918,5.566,3.834a16.8,16.8,0,0,1,2.732-1.142L20.062.367,21.571.184a22.914,22.914,0,0,1,5.79,0L28.87.367l1.223,6.647a16.761,16.761,0,0,1,2.732,1.142l5.607-3.793,1.183.917A24.591,24.591,0,0,1,43.692,9.36l.917,1.183-3.833,5.566a16.8,16.8,0,0,1,1.142,2.732l6.646,1.223.184,1.509a22.928,22.928,0,0,1,0,5.792l-.184,1.508L41.918,30.1a16.8,16.8,0,0,1-1.142,2.732l3.793,5.607-.917,1.183A24.66,24.66,0,0,1,39.574,43.7l-1.183.917-5.566-3.833a16.84,16.84,0,0,1-2.732,1.142L28.87,48.572l-1.509.184a23,23,0,0,1-5.79,0Z" fill="#fff"/>
  <path id="Shape-4" data-name="Shape" d="M21.571,48.756l-1.509-.184-1.223-6.647a16.883,16.883,0,0,1-2.732-1.142L10.5,44.575l-1.183-.918A24.551,24.551,0,0,1,5.24,39.579L4.323,38.4,8.155,32.83A16.879,16.879,0,0,1,7.014,30.1L.367,28.874.184,27.365a22.928,22.928,0,0,1,0-5.792l.184-1.509,6.646-1.223a16.879,16.879,0,0,1,1.141-2.732L4.363,10.5,5.28,9.319A24.586,24.586,0,0,1,9.358,5.241l1.183-.918,5.566,3.834a16.8,16.8,0,0,1,2.732-1.142L20.062.367,21.571.184a22.914,22.914,0,0,1,5.79,0L28.87.367l1.223,6.647a16.761,16.761,0,0,1,2.732,1.142l5.607-3.793,1.183.917A24.591,24.591,0,0,1,43.692,9.36l.917,1.183-3.833,5.566a16.8,16.8,0,0,1,1.142,2.732l6.646,1.223.184,1.509a22.928,22.928,0,0,1,0,5.792l-.184,1.508L41.918,30.1a16.8,16.8,0,0,1-1.142,2.732l3.793,5.607-.917,1.183A24.66,24.66,0,0,1,39.574,43.7l-1.183.917-5.566-3.833a16.84,16.84,0,0,1-2.732,1.142L28.87,48.572l-1.509.184a23,23,0,0,1-5.79,0Z" transform="translate(73.398 36.704)" fill="#fff"/>
  <path id="Shape-5" data-name="Shape" d="M21.571,48.756l-1.509-.184-1.223-6.647a16.883,16.883,0,0,1-2.732-1.142L10.5,44.575l-1.183-.918A24.551,24.551,0,0,1,5.24,39.579L4.323,38.4,8.155,32.83A16.879,16.879,0,0,1,7.014,30.1L.367,28.874.184,27.365a22.928,22.928,0,0,1,0-5.792l.184-1.509,6.646-1.223a16.879,16.879,0,0,1,1.141-2.732L4.363,10.5,5.28,9.319A24.586,24.586,0,0,1,9.358,5.241l1.183-.918,5.566,3.834a16.8,16.8,0,0,1,2.732-1.142L20.062.367,21.571.184a22.914,22.914,0,0,1,5.79,0L28.87.367l1.223,6.647a16.761,16.761,0,0,1,2.732,1.142l5.607-3.793,1.183.917A24.591,24.591,0,0,1,43.692,9.36l.917,1.183-3.833,5.566a16.8,16.8,0,0,1,1.142,2.732l6.646,1.223.184,1.509a22.928,22.928,0,0,1,0,5.792l-.184,1.508L41.918,30.1a16.8,16.8,0,0,1-1.142,2.732l3.793,5.607-.917,1.183A24.66,24.66,0,0,1,39.574,43.7l-1.183.917-5.566-3.833a16.84,16.84,0,0,1-2.732,1.142L28.87,48.572l-1.509.184a23,23,0,0,1-5.79,0Z" transform="translate(0 73.408)" fill="#fff"/>
</svg>
