<svg id="place" xmlns="http://www.w3.org/2000/svg" width="154" height="154" viewBox="0 0 154 154">
  <path id="Path" d="M154,77a76.915,76.915,0,1,1-3.407-22.723A76.928,76.928,0,0,1,154,77Z" fill="#fff"/>
  <ellipse id="Oval" cx="19.884" cy="8.191" rx="19.884" ry="8.191" transform="translate(95.509 76.394)" fill="#b57ad2"/>
  <path id="Path-2" data-name="Path" d="M104.084,12.251A8,8,0,0,1,102,16.38a12.506,12.506,0,0,1-3.813,2.559,38.9,38.9,0,0,1-9.962,2.706c-3.533.577-7.1.928-10.669,1.2q-5.388.416-10.787.685c-7.182.361-14.369.61-21.55,1.012a206.508,206.508,0,0,0-21.226,2.016,50.742,50.742,0,0,0-9.966,2.425,11.008,11.008,0,0,0-4.143,2.347,1.21,1.21,0,0,0-.385,1.3,6.627,6.627,0,0,0,.9,1.895,22.457,22.457,0,0,0,3.255,3.844c.339.333.684.659,1.034.981a1.515,1.515,0,0,0,.544.328,17.408,17.408,0,0,0,4.629,1.055c1.714.219,3.438.347,5.163.445,3.051.172,6.11.228,9.165.316a159.719,159.719,0,0,1,20.556,1.527c6.526,1.04,13.147,2.959,18.55,6.893a25.689,25.689,0,0,1,6.719,7.136q.073.118.145.236c.089.148.087.084-.009.207a2.162,2.162,0,0,1-.475.316q-.548.362-1.1.715-1.038.66-2.1,1.287-2.121,1.257-4.32,2.376-2.258,1.149-4.588,2.148-1.116.478-2.246.921c-.143.056-.467.239-.561.158-.112-.1-.189-.416-.262-.553a7.846,7.846,0,0,0-.631-1c-1.869-2.518-4.976-4.032-7.827-5.139a58.723,58.723,0,0,0-9.925-2.742c-3.483-.687-6.995-1.2-10.515-1.647-3.462-.44-6.928-.841-10.387-1.3a70.72,70.72,0,0,1-10.091-1.9,17.3,17.3,0,0,1-7.513-3.942c-.508-.5-.973-1.049-1.436-1.588A38.25,38.25,0,0,1,3.1,41.571,16.794,16.794,0,0,1,0,32.9,10.724,10.724,0,0,1,4.145,24.34a22.836,22.836,0,0,1,9.071-3.992,73.424,73.424,0,0,1,10.231-1.593c7.066-.671,14.19-.781,21.283-.848,7.192-.069,14.384-.036,21.575-.152a168.118,168.118,0,0,0,21.3-1.312,48.962,48.962,0,0,0,5.141-.988,16.721,16.721,0,0,0,4.583-1.744,4.084,4.084,0,0,0,1.551-1.445,3.5,3.5,0,0,0,.377-2.035c-.207-1.473-1.644-2.479-2.84-3.155a20.353,20.353,0,0,0-4.537-1.787,9.025,9.025,0,0,0-1.912-.439,4.058,4.058,0,0,1,.159-.774q.178-.838.36-1.675.178-.82.359-1.64A5.89,5.89,0,0,1,91.016,0a8.282,8.282,0,0,0,1.515.392A29.206,29.206,0,0,1,96.909,1.85c2.593,1.114,5.167,2.758,6.5,5.339A7.738,7.738,0,0,1,104.084,12.251Z" transform="translate(39.727 83.471)" fill="#b57ad2"/>
  <path id="Path-3" data-name="Path" d="M147.186,54.277H0a77.03,77.03,0,0,1,147.186,0Z" transform="translate(3.407)" fill="#f0e3f7"/>
  <g id="Group" transform="translate(1.886 39.914)">
    <path id="Path-4" data-name="Path" d="M71.989,57.822,43.427,107.294A77.11,77.11,0,0,1,28.775,98.62L5.222,57.822a38.436,38.436,0,0,1,5.641-46.071A38.017,38.017,0,0,1,38.606,0C68.281,0,86.827,32.123,71.989,57.822Z" transform="translate(0.08 0.028)" fill="#b57ad2"/>
    <path id="Path-5" data-name="Path" d="M40.164,20.08A20.074,20.074,0,1,1,24.823.566,20.089,20.089,0,0,1,40.164,20.08Z" transform="translate(18.603 18.495)" fill="#f0e3f7"/>
    <path id="Path-6" data-name="Path" d="M30.678,19.514A20.089,20.089,0,0,1,15.337,39.031,20.085,20.085,0,0,1,15.337,0,20.088,20.088,0,0,1,30.678,19.514Z" transform="translate(28.089 19.061)" fill="#fff"/>
  </g>
  <g id="Group-2" data-name="Group" transform="translate(87.057)">
    <path id="Path-7" data-name="Path" d="M28.237,84.585,52.655,42.292A28.2,28.2,0,0,0,28.237,0h0A28.2,28.2,0,0,0,3.819,42.292Z" transform="translate(0.099 0)" fill="#b57ad2"/>
    <path id="Path-8" data-name="Path" d="M29.377,14.687A14.682,14.682,0,1,1,18.156.414,14.693,14.693,0,0,1,29.377,14.687Z" transform="translate(13.648 13.507)" fill="#f0e3f7"/>
    <path id="Path-9" data-name="Path" d="M22.438,14.273A14.693,14.693,0,0,1,11.218,28.549,14.691,14.691,0,0,1,11.218,0,14.693,14.693,0,0,1,22.438,14.273Z" transform="translate(20.586 13.921)" fill="#fff"/>
  </g>
</svg>
