<svg xmlns="http://www.w3.org/2000/svg" width="221" height="221" viewBox="0 0 221 221">
  <g id="Illustration" opacity="0.9">
    <path id="Path" d="M221,110.5a110.425,110.425,0,0,1-76.994,105.322,108.288,108.288,0,0,1-15.93,3.784.341.341,0,0,1-.073.01q-4.016.642-8.117.988-.875.073-1.755.135c-.826.054-1.656.1-2.49.14q-2.557.121-5.141.121-2.653,0-5.267-.126-1.184-.053-2.369-.14c-.59-.04-1.177-.081-1.764-.13q-4.2-.352-8.311-1.02c-1.308-.212-2.612-.442-3.9-.7A109.142,109.142,0,0,1,72.6,214.325q-4.568-1.664-8.94-3.716-1.487-.7-2.959-1.448-3.773-1.907-7.373-4.1A110.5,110.5,0,1,1,221,110.5Z" fill="#ffe152"/>
    <path id="Path-2" data-name="Path" d="M79,29.825V105a108.5,108.5,0,0,1-16.208-4.54q-4.544-1.657-8.894-3.7-1.48-.7-2.944-1.442-3.754-1.9-7.336-4.079A110.549,110.549,0,0,1,12.787,63.4,109.8,109.8,0,0,1,0,41.718V29.825A29.823,29.823,0,0,1,22.072,1.016C22.538.89,23,.772,23.481.675A28.75,28.75,0,0,1,27.358.1c.8-.062,1.615-.1,2.436-.1H49.2a29.593,29.593,0,0,1,6.319.675c.116.022.233.049.349.076.342.077.688.161,1.023.252a.239.239,0,0,0,.027.008A29.845,29.845,0,0,1,79,29.825Z" transform="translate(9 113)" fill="#2ba1cf"/>
    <path id="Path-3" data-name="Path" d="M67,29.825V105a110.808,110.808,0,0,1-16.4-4.54q-4.6-1.657-9-3.7-1.5-.7-2.979-1.442-3.8-1.9-7.423-4.079A111.414,111.414,0,0,1,0,63.4V29.825A29.885,29.885,0,0,1,22.334,1.016C22.808.89,23.28.772,23.76.675A29.5,29.5,0,0,1,27.683.1C28.5.037,29.318,0,30.149,0h6.7A30.287,30.287,0,0,1,43.24.675c.117.022.236.049.353.076.346.077.7.161,1.035.252a.244.244,0,0,0,.027.008,30.132,30.132,0,0,1,9.363,4.3A29.692,29.692,0,0,1,67,29.825Z" transform="translate(22 113)" fill="#66baed"/>
    <path id="Path-4" data-name="Path" d="M35,0l-.07.339L26.013,42.078A8.688,8.688,0,0,1,17.576,49h-.151a8.687,8.687,0,0,1-8.437-6.922L.07.343,0,0Z" transform="translate(31 114)" fill="#f2f0ec"/>
    <path id="Path-5" data-name="Path" d="M18,16.511,4.2,24,0,4.931,8.576,0" transform="translate(32 109)" fill="#d8d5d0"/>
    <path id="Path-6" data-name="Path" d="M0,16.511,13.8,24,18,4.931,9.424,0" transform="translate(49 109)" fill="#d8d5d0"/>
    <path id="Path-7" data-name="Path" d="M0,85V40.06a39.449,39.449,0,0,1,2.29-13.3A40.523,40.523,0,0,1,40.5,0,40.693,40.693,0,0,1,71.168,13.892,39.8,39.8,0,0,1,81,40.06V85" transform="translate(8 21)" fill="#cc7a3b"/>
    <path id="Path-8" data-name="Path" d="M16.576,41.813c0,15.9,9.364,34.287,14.506,43.187H0V40.058a39.69,39.69,0,0,1,2.278-13.3A40.323,40.323,0,0,1,40,0C27.612.307,16.576,20.067,16.576,41.813Z" transform="translate(10 21)" fill="#a35418"/>
    <path id="Path-9" data-name="Path" d="M22,0V13.226a10.8,10.8,0,0,1-7.747,10.293A11.17,11.17,0,0,1,11,24,10.886,10.886,0,0,1,0,13.226V0Z" transform="translate(38 102)" fill="#eab599"/>
    <path id="Path-10" data-name="Path" d="M15,0V.828A10.655,10.655,0,0,1,7.456,11,10.662,10.662,0,0,1,0,2.215q1.073.066,2.157.066A36.882,36.882,0,0,0,8.105,1.8,36.609,36.609,0,0,0,15,0Z" transform="translate(45 114)" fill="#f6caae"/>
    <path id="Path-11" data-name="Path" d="M20,10A10,10,0,1,1,11.6.129,10,10,0,0,1,20,10Z" transform="translate(0 70)" fill="#f6caae"/>
    <path id="Path-12" data-name="Path" d="M10,9.5A9.841,9.841,0,0,1,1.364,19a33.758,33.758,0,0,1,0-19A9.839,9.839,0,0,1,10,9.5Z" transform="translate(10 71)" fill="#eab599"/>
    <path id="Path-13" data-name="Path" d="M7,3.5A3.5,3.5,0,1,1,3.5,0,3.5,3.5,0,0,1,7,3.5Z" transform="translate(7 77)" fill="#eab599"/>
    <path id="Path-14" data-name="Path" d="M62,22.577V56.769a36.425,36.425,0,0,1-19.429,9.754l-.181.03A35.913,35.913,0,0,1,36.682,67,36.846,36.846,0,0,1,0,29.994V15.9a37.616,37.616,0,0,1,.375-5.315A23.092,23.092,0,0,0,29.59,8.69,20.983,20.983,0,0,0,35.1,0a24.5,24.5,0,0,0,7.572,15.246A26.938,26.938,0,0,0,62,22.577Z" transform="translate(13 45)" fill="#eab599"/>
    <path id="Path-15" data-name="Path" d="M51,22.729V57.15a36.752,36.752,0,0,1-19.591,9.819L31.227,67A37.181,37.181,0,0,1,0,30.2V16.007q0-.566.02-1.127a23.075,23.075,0,0,0,18.3-6.134A21.114,21.114,0,0,0,23.878,0a24.652,24.652,0,0,0,7.635,15.348A27.189,27.189,0,0,0,51,22.729Z" transform="translate(23 45)" fill="#f6caae"/>
    <path id="Path-16" data-name="Path" d="M13,6A6.265,6.265,0,0,0,6.5,0,6.265,6.265,0,0,0,0,6" transform="translate(56 66)" fill="#eab599"/>
    <path id="Path-17" data-name="Path" d="M13,6A6.265,6.265,0,0,0,6.5,0,6.264,6.264,0,0,0,0,6" transform="translate(29 66)" fill="#eab599"/>
    <path id="Path-18" data-name="Path" d="M8,4A4,4,0,1,1,4,0,4,4,0,0,1,8,4Z" transform="translate(31 70)" fill="#3d4159"/>
    <path id="Path-19" data-name="Path" d="M8,4A4,4,0,1,1,4,0,4,4,0,0,1,8,4Z" transform="translate(59 70)" fill="#3d4159"/>
    <path id="Path-20" data-name="Path" d="M10.193,3H1.808A1.676,1.676,0,0,1,0,1.5,1.676,1.676,0,0,1,1.808,0h8.385A1.676,1.676,0,0,1,12,1.5,1.676,1.676,0,0,1,10.193,3Z" transform="translate(43 81)" fill="#eab599"/>
    <path id="Path-21" data-name="Path" d="M9.5,6A16.165,16.165,0,0,1,.821,3.419,1.972,1.972,0,0,1,.2.945,1.483,1.483,0,0,1,2.347.226a13.1,13.1,0,0,0,14.306,0A1.482,1.482,0,0,1,18.8.945a1.972,1.972,0,0,1-.625,2.474A16.165,16.165,0,0,1,9.5,6Z" transform="translate(40 91)" fill="#eab599"/>
    <path id="Path-22" data-name="Path" d="M3,1.5A1.5,1.5,0,1,1,1.5,0,1.5,1.5,0,0,1,3,1.5Z" transform="translate(36 73)" fill="#fff"/>
    <path id="Path-23" data-name="Path" d="M3,1.5A1.5,1.5,0,1,1,1.5,0,1.5,1.5,0,0,1,3,1.5Z" transform="translate(63 73)" fill="#fff"/>
    <path id="Path-24" data-name="Path" d="M9,4.5A4.5,4.5,0,1,1,4.5,0,4.5,4.5,0,0,1,9,4.5Z" transform="translate(65 80)" fill="#eab599"/>
    <path id="Path-25" data-name="Path" d="M9,4.5A4.5,4.5,0,1,1,4.5,0,4.5,4.5,0,0,1,9,4.5Z" transform="translate(25 80)" fill="#eab599"/>
    <path id="Path-26" data-name="Path" d="M84,31.485v13.9A111.825,111.825,0,0,1,29.66,99.953a110.978,110.978,0,0,1-13.48,5.234,110.043,110.043,0,0,1-16.107,3.8A.347.347,0,0,1,0,109V31.485A31.56,31.56,0,0,1,29.09.1c.858-.073,1.718-.1,2.59-.1H52.311A31.608,31.608,0,0,1,84,31.485Z" transform="translate(128 111)" fill="#bfd5de"/>
    <path id="Path-27" data-name="Path" d="M67,31.429V45.306A111.064,111.064,0,0,1,13.317,99.775,108.952,108.952,0,0,1,0,105V31.429A31.367,31.367,0,0,1,31.3,0h4.4A31.364,31.364,0,0,1,67,31.429Z" transform="translate(144 111)" fill="#dde8ed"/>
    <path id="Path-28" data-name="Path" d="M21,10.5A10.492,10.492,0,1,1,12.182.135,10.5,10.5,0,0,1,21,10.5Z" transform="translate(118 66)" fill="#d3a489"/>
    <path id="Path-29" data-name="Path" d="M17,0,8.5,13,0,0" transform="translate(161 123)" fill="#f74f4f"/>
    <path id="Path-30" data-name="Path" d="M23,41.694,11.5,56,0,41.694,11.5,0Z" transform="translate(158 132)" fill="#f74f4f"/>
    <path id="Path-31" data-name="Path" d="M10,10.5A10.535,10.535,0,0,1,1.364,21a41.089,41.089,0,0,1,0-21A10.537,10.537,0,0,1,10,10.5Z" transform="translate(129 66)" fill="#bf8e75"/>
    <path id="Path-32" data-name="Path" d="M8,4A4,4,0,1,1,4,0,4,4,0,0,1,8,4Z" transform="translate(125 73)" fill="#bf8e75"/>
    <path id="Path-33" data-name="Path" d="M18,17.2,4.2,25,0,5.137,8.575,0" transform="translate(152 107)" fill="#bfd5de"/>
    <path id="Path-34" data-name="Path" d="M0,17.2,13.8,25,18,5.137,9.424,0" transform="translate(169 107)" fill="#bfd5de"/>
    <path id="Path-35" data-name="Path" d="M0,10.5A10.492,10.492,0,1,0,8.818.135,10.5,10.5,0,0,0,0,10.5Z" transform="translate(200 66)" fill="#d3a489"/>
    <g id="Group" transform="translate(130 32)">
      <path id="Path-36" data-name="Path" d="M0,10.333A10.455,10.455,0,0,0,8.758,20.666a39,39,0,0,0,1.384-10.333A39.018,39.018,0,0,0,8.758,0,10.458,10.458,0,0,0,0,10.333Z" transform="translate(69.637 34.631)" fill="#bf8e75"/>
      <path id="Path-37" data-name="Path" d="M7.456,3.74A3.728,3.728,0,1,1,3.728,0,3.735,3.735,0,0,1,7.456,3.74Z" transform="translate(76.338 41.224)" fill="#bf8e75"/>
      <path id="Path-38" data-name="Path" d="M77.6,39.009A38.9,38.9,0,0,1,45.029,77.451a38.194,38.194,0,0,1-6.228.5A38.871,38.871,0,0,1,0,39.009C0,28.832,3.521,13.554,9.889,6.616,16.98-1.109,27.51.064,38.8.064a38.209,38.209,0,0,1,6.228.5A38.9,38.9,0,0,1,77.6,39.009Z" transform="translate(0.073 0.391)" fill="#bf8e75"/>
      <path id="Path-39" data-name="Path" d="M22.429,0V13.813A11.215,11.215,0,1,1,0,13.813V0Z" transform="translate(27.661 67.603)" fill="#bf8e75"/>
    </g>
    <path id="Path-40" data-name="Path" d="M16,0V.9A11.593,11.593,0,0,1,7.953,12,11.56,11.56,0,0,1,0,2.416q1.145.071,2.3.072a38.645,38.645,0,0,0,6.345-.519A38.359,38.359,0,0,0,16,0Z" transform="translate(164 112)" fill="#d3a489"/>
    <path id="Path-41" data-name="Path" d="M65,38.5A38.919,38.919,0,0,1,32.5,77,39.1,39.1,0,0,1,13.741,8.7,38.4,38.4,0,0,1,32.5,0a38.9,38.9,0,0,1,32.31,34.611c.127,1.28.191,2.579.191,3.89Z" transform="translate(143 33)" fill="#d3a489"/>
    <path id="Path-42" data-name="Path" d="M10.5,6A19.253,19.253,0,0,1,.909,3.421,1.86,1.86,0,0,1,.217.945,1.713,1.713,0,0,1,2.594.227a15.772,15.772,0,0,0,15.813,0,1.712,1.712,0,0,1,2.375.718,1.862,1.862,0,0,1-.689,2.476A19.262,19.262,0,0,1,10.5,6Z" transform="translate(159 84)" fill="#bf8e75"/>
    <path id="Path-43" data-name="Path" d="M9,4.5A4.5,4.5,0,1,1,4.5,0,4.5,4.5,0,0,1,9,4.5Z" transform="translate(152 64)" fill="#3d4159"/>
    <path id="Path-44" data-name="Path" d="M9,4.5A4.5,4.5,0,1,1,4.5,0,4.5,4.5,0,0,1,9,4.5Z" transform="translate(178 64)" fill="#3d4159"/>
    <path id="Path-45" data-name="Path" d="M3,1.5A1.5,1.5,0,1,1,1.5,0,1.5,1.5,0,0,1,3,1.5Z" transform="translate(157 66)" fill="#fff"/>
    <path id="Path-46" data-name="Path" d="M3,1.5A1.5,1.5,0,1,1,1.5,0,1.5,1.5,0,0,1,3,1.5Z" transform="translate(182 66)" fill="#fff"/>
    <path id="Path-47" data-name="Path" d="M11.041,3H1.959A1.777,1.777,0,0,1,0,1.5,1.776,1.776,0,0,1,1.959,0h9.081A1.776,1.776,0,0,1,13,1.5,1.778,1.778,0,0,1,11.041,3Z" transform="translate(163 77)" fill="#bf8e75"/>
    <path id="Path-48" data-name="Path" d="M0,0H17V5H0Z" transform="translate(182 142)" fill="#bfd5de"/>
    <path id="Path-49" data-name="Path" d="M0,.061A23.531,23.531,0,0,1,21.723,22.435l.111,2.253h6.741L32.206,49,41,46.259,39.82,22.437A23.518,23.518,0,0,0,16.314,0Z" transform="translate(167 21)" fill="#2a2f4f"/>
    <path id="Path-50" data-name="Path" d="M33.966,0A24.017,24.017,0,0,1,0,33.966Z" transform="translate(172 12)" fill="#3d4159"/>
    <path id="Path-51" data-name="Path" d="M41.958,24.688H12.487L8.837,49,0,46.26,1.184,22.436A23.585,23.585,0,0,1,24.808,0L67.372.161,73,10.31" transform="translate(131 21)" fill="#3d4159"/>
    <path id="Path-52" data-name="Path" d="M41,.061A23.531,23.531,0,0,0,19.277,22.435l-.111,2.253h-6.74L8.794,49,0,46.259,1.18,22.437A23.518,23.518,0,0,1,24.686,0Z" transform="translate(131 21)" fill="#2a2f4f"/>
    <path id="Path-53" data-name="Path" d="M94,35.33v8.285A110.811,110.811,0,0,1,47,54,110.762,110.762,0,0,1,0,43.61V35.33A35.357,35.357,0,0,1,26.266,1.2c.553-.148,1.11-.285,1.675-.406A35.167,35.167,0,0,1,32.553.118C33.512.04,34.476,0,35.454,0H58.543a35.657,35.657,0,0,1,7.522.794c.14.027.281.059.416.091.408.094.814.194,1.216.3a.179.179,0,0,1,.032.008A35.417,35.417,0,0,1,94,35.33Z" transform="translate(63 167)" fill="#3d4159"/>
    <path id="Path-54" data-name="Path" d="M41,0l-.085.4L29.779,52.605q-.865.073-1.734.134c-.816.054-1.636.1-2.461.139Q23.057,53,20.5,53q-2.622,0-5.2-.126-1.17-.053-2.341-.139c-.583-.04-1.163-.081-1.743-.129L.083.4,0,0Z" transform="translate(90 168)" fill="#66baed"/>
    <path id="Path-55" data-name="Path" d="M19,0,9.5,15,0,0" transform="translate(101 180)" fill="#3d4159"/>
    <path id="Path-56" data-name="Path" d="M15,29.739c-.812.054-1.627.1-2.447.14Q10.041,30,7.5,30,4.9,30,2.327,29.874,1.165,29.82,0,29.734L7.5,0Z" transform="translate(103 191)" fill="#3d4159"/>
    <path id="Path-57" data-name="Path" d="M21,19.951,4.9,29,0,5.96,10,0" transform="translate(89 162)" fill="#2ba1cf"/>
    <path id="Path-58" data-name="Path" d="M0,19.951,16.1,29,21,5.96,10.995,0" transform="translate(111 162)" fill="#2ba1cf"/>
    <path id="Path-59" data-name="Path" d="M15.9,30.325h4.954l-8.652,21.4A106.066,106.066,0,0,1,0,53L15.2.392,15.316,0,26,3.548Z" transform="translate(116 168)" fill="#2a2f4f"/>
    <path id="Path-60" data-name="Path" d="M26,53a105.69,105.69,0,0,1-12.214-1.288L5.144,30.328H10.1L0,3.549,10.686,0,10.8.392Z" transform="translate(79 168)" fill="#2a2f4f"/>
    <path id="Path-61" data-name="Path" d="M25,0V15.429a12.563,12.563,0,0,1-8.8,12.01A12.4,12.4,0,0,1,12.5,28,12.533,12.533,0,0,1,0,15.429V0Z" transform="translate(98 153)" fill="#eab599"/>
    <path id="Path-62" data-name="Path" d="M18,0V.98A12.62,12.62,0,0,1,8.948,13,12.658,12.658,0,0,1,0,2.617q1.289.078,2.589.077a45.082,45.082,0,0,0,7.137-.56A44.552,44.552,0,0,0,18,0Z" transform="translate(105 167)" fill="#f6caae"/>
    <path id="Path-63" data-name="Path" d="M24,12A12,12,0,0,1,13.922,23.846,12.138,12.138,0,0,1,12,24,12,12,0,1,1,24,12Z" transform="translate(52 116)" fill="#f6caae"/>
    <path id="Path-64" data-name="Path" d="M11,11.5A11.554,11.554,0,0,1,1.5,23a44.838,44.838,0,0,1,0-23A11.554,11.554,0,0,1,11,11.5Z" transform="translate(65 117)" fill="#eab599"/>
    <path id="Path-65" data-name="Path" d="M8,4A4,4,0,1,1,4,0,4,4,0,0,1,8,4Z" transform="translate(60 124)" fill="#eab599"/>
    <path id="Path-66" data-name="Path" d="M0,12A12,12,0,0,0,10.078,23.846,12.122,12.122,0,0,0,12,24,12,12,0,1,0,0,12Z" transform="translate(145 116)" fill="#f6caae"/>
    <path id="Path-67" data-name="Path" d="M0,11.5A11.554,11.554,0,0,0,9.5,23,44.564,44.564,0,0,0,11,11.5,44.554,44.554,0,0,0,9.5,0,11.554,11.554,0,0,0,0,11.5Z" transform="translate(145 117)" fill="#eab599"/>
    <path id="Path-68" data-name="Path" d="M88,43.685V60.319a43.78,43.78,0,0,1-36.941,43.117l-.214.035A44.044,44.044,0,0,1,0,60.32V43.685a43.2,43.2,0,0,1,2.485-14.5A43.989,43.989,0,0,1,44,0h0a44.263,44.263,0,0,1,6.851.529A43.79,43.79,0,0,1,88,43.685Z" transform="translate(67 61)" fill="#eab599"/>
    <path id="Path-69" data-name="Path" d="M8,4A4,4,0,1,1,4,0,4,4,0,0,1,8,4Z" transform="translate(153 124)" fill="#eab599"/>
    <path id="Path-70" data-name="Path" d="M73,43.18V59.823a43.567,43.567,0,0,1-36.294,43.141l-.212.035A43.569,43.569,0,0,1,0,59.823V43.18A43.572,43.572,0,0,1,36.5,0,43.57,43.57,0,0,1,73,43.18Z" transform="translate(81 62)" fill="#f6caae"/>
    <path id="Path-71" data-name="Path" d="M10,5A5,5,0,1,1,5,0a5,5,0,0,1,5,5Z" transform="translate(92 115)" fill="#3d4159"/>
    <path id="Path-72" data-name="Path" d="M10,5A5,5,0,1,1,5,0a5,5,0,0,1,5,5Z" transform="translate(119 115)" fill="#3d4159"/>
    <path id="Path-73" data-name="Path" d="M4,2A2,2,0,1,1,2,0,2,2,0,0,1,4,2Z" transform="translate(96 117)" fill="#fff"/>
    <path id="Path-74" data-name="Path" d="M4,2A2,2,0,1,1,2,0,2,2,0,0,1,4,2Z" transform="translate(124 117)" fill="#fff"/>
    <path id="Path-75" data-name="Path" d="M11.041,4H1.959A1.98,1.98,0,0,1,0,2,1.979,1.979,0,0,1,1.959,0h9.082A1.979,1.979,0,0,1,13,2,1.982,1.982,0,0,1,11.041,4Z" transform="translate(104 126)" fill="#eab599"/>
    <path id="Path-76" data-name="Path" d="M11.5,6A22.66,22.66,0,0,1,.994,3.42,1.775,1.775,0,0,1,.238.946a1.972,1.972,0,0,1,2.6-.721,18.693,18.693,0,0,0,17.317,0,1.969,1.969,0,0,1,2.6.721,1.775,1.775,0,0,1-.756,2.474A22.665,22.665,0,0,1,11.5,6Z" transform="translate(99 137)" fill="#eab599"/>
    <path id="Path-77" data-name="Path" d="M88,35.029V52H79.811V38.709L20.7,27.848l-12.508-2.3V52H0V35.028A35.225,35.225,0,0,1,35.421,0H52.579c.466,0,.932.008,1.4.032A35.2,35.2,0,0,1,88,35.029Z" transform="translate(67 55)" fill="#2a2f4f"/>
    <path id="Path-78" data-name="Path" d="M67,35.019V52H58.847V38.7L0,27.833A35.2,35.2,0,0,1,33.13,0,35.139,35.139,0,0,1,67,35.019Z" transform="translate(88 55)" fill="#3d4159"/>
  </g>
</svg>
