<svg xmlns="http://www.w3.org/2000/svg" width="72.826" height="19.422" viewBox="0 0 72.826 19.422">
  <path id="LOGO" d="M59.865,18.681a8.22,8.22,0,0,1-2.874-2.041A9.043,9.043,0,0,1,55.2,13.585,11.216,11.216,0,0,1,54.574,9.8,11.6,11.6,0,0,1,55.2,5.941a9.28,9.28,0,0,1,1.794-3.107A8.2,8.2,0,0,1,59.865.754a10.159,10.159,0,0,1,7.682,0,8.231,8.231,0,0,1,2.86,2.08A9.265,9.265,0,0,1,72.2,5.941,11.58,11.58,0,0,1,72.826,9.8a11.194,11.194,0,0,1-.625,3.783,9.029,9.029,0,0,1-1.794,3.056,8.25,8.25,0,0,1-2.86,2.041,10.33,10.33,0,0,1-7.682,0Zm-19.734,0a8.217,8.217,0,0,1-2.873-2.041,9.045,9.045,0,0,1-1.795-3.056A11.216,11.216,0,0,1,34.84,9.8a11.6,11.6,0,0,1,.624-3.861,9.282,9.282,0,0,1,1.795-3.107A8.2,8.2,0,0,1,40.131.754,9.368,9.368,0,0,1,43.966,0a9.018,9.018,0,0,1,2.769.429A7.81,7.81,0,0,1,49.153,1.69a6.819,6.819,0,0,1,2.64,4.862h-3.9a3.9,3.9,0,0,0-1.4-2.34,4.08,4.08,0,0,0-2.522-.78,4.764,4.764,0,0,0-2.34.534,4.417,4.417,0,0,0-1.56,1.429,6.27,6.27,0,0,0-.871,2.041A10.174,10.174,0,0,0,38.922,9.8a9.463,9.463,0,0,0,.273,2.275,6.15,6.15,0,0,0,.871,1.989,4.458,4.458,0,0,0,1.56,1.417,4.764,4.764,0,0,0,2.34.534A4.43,4.43,0,0,0,47.1,14.989a4.46,4.46,0,0,0,1.287-2.976H44.278V8.97h7.8V19.006h-2.6L49.062,16.9a6.118,6.118,0,0,1-2.417,1.963,6.844,6.844,0,0,1-2.678.559A9.516,9.516,0,0,1,40.131,18.681Zm-20.228,0A8.225,8.225,0,0,1,17.03,16.64a9.043,9.043,0,0,1-1.794-3.056A11.216,11.216,0,0,1,14.612,9.8a11.6,11.6,0,0,1,.624-3.861A9.28,9.28,0,0,1,17.03,2.834,8.205,8.205,0,0,1,19.9.754,9.373,9.373,0,0,1,23.738,0a9.345,9.345,0,0,1,3.847.754,8.231,8.231,0,0,1,2.86,2.08A9.265,9.265,0,0,1,32.24,5.941,11.6,11.6,0,0,1,32.864,9.8a11.216,11.216,0,0,1-.625,3.783,9.029,9.029,0,0,1-1.794,3.056,8.25,8.25,0,0,1-2.86,2.041,9.493,9.493,0,0,1-3.847.741A9.521,9.521,0,0,1,19.9,18.681ZM0,19.006V.442H4.082V15.574H13.13v3.433Z" fill="#b57ad2"/>
</svg>
