<svg id="famous" xmlns="http://www.w3.org/2000/svg" width="154" height="154" viewBox="0 0 154 154">
  <rect id="Rectangle" width="5.133" height="10.267" transform="translate(74.433 15.4)" fill="#b57ad2"/>
  <rect id="Rectangle-2" data-name="Rectangle" width="10.267" height="5.133" transform="translate(99.789 28.981) rotate(-45)" fill="#b57ad2"/>
  <rect id="Rectangle-3" data-name="Rectangle" width="10.267" height="5.133" transform="translate(130.9 148.867)" fill="#b57ad2"/>
  <rect id="Rectangle-4" data-name="Rectangle" width="10.267" height="5.133" transform="translate(130.9 123.2)" fill="#b57ad2"/>
  <rect id="Rectangle-5" data-name="Rectangle" width="10.267" height="5.133" transform="translate(130.9 97.533)" fill="#b57ad2"/>
  <rect id="Rectangle-6" data-name="Rectangle" width="10.266" height="5.133" transform="translate(127.791 73.618) rotate(-18.446)" fill="#b57ad2"/>
  <rect id="Rectangle-7" data-name="Rectangle" width="10.266" height="5.133" transform="translate(119.817 47.001) rotate(-18.446)" fill="#b57ad2"/>
  <rect id="Rectangle-8" data-name="Rectangle" width="5.133" height="10.267" transform="translate(43.324 25.357) rotate(-44.992)" fill="#b57ad2"/>
  <rect id="Rectangle-9" data-name="Rectangle" width="10.267" height="5.133" transform="translate(12.833 148.867)" fill="#b57ad2"/>
  <rect id="Rectangle-10" data-name="Rectangle" width="10.267" height="5.133" transform="translate(12.833 123.2)" fill="#b57ad2"/>
  <path id="Path" d="M50.486,0H42.514C19.072,0,0,18.866,0,42.057A3.964,3.964,0,0,0,3.986,46H89.014A3.965,3.965,0,0,0,93,42.057C93,18.867,73.928,0,50.486,0Z" transform="translate(31 103)" fill="#b57ad2"/>
  <path id="Path-2" data-name="Path" d="M25,0A25.2,25.2,0,0,0,0,25.332v1.335A25.2,25.2,0,0,0,25,52,25.2,25.2,0,0,0,50,26.668V25.332A25.2,25.2,0,0,0,25,0Z" transform="translate(52 60)" fill="#b57ad2"/>
  <rect id="Rectangle-11" data-name="Rectangle" width="10.267" height="5.133" transform="translate(12.833 97.533)" fill="#b57ad2"/>
  <rect id="Rectangle-12" data-name="Rectangle" width="5.133" height="10.266" transform="translate(14.851 75.241) rotate(-71.572)" fill="#b57ad2"/>
  <rect id="Rectangle-13" data-name="Rectangle" width="5.134" height="10.267" transform="translate(22.813 48.641) rotate(-71.561)" fill="#b57ad2"/>
  <path id="Shape" d="M10.266,23.1a7.708,7.708,0,0,0-7.7-7.7,2.567,2.567,0,0,1,0-5.134,7.707,7.707,0,0,0,7.7-7.7,2.567,2.567,0,0,1,5.134,0,7.708,7.708,0,0,0,7.7,7.7,2.567,2.567,0,1,1,0,5.134,7.709,7.709,0,0,0-7.7,7.7,2.567,2.567,0,1,1-5.134,0Z" transform="translate(128.333)" fill="#b57ad2"/>
  <path id="Shape-2" data-name="Shape" d="M10.266,23.1a7.708,7.708,0,0,0-7.7-7.7,2.567,2.567,0,0,1,0-5.134,7.707,7.707,0,0,0,7.7-7.7,2.567,2.567,0,0,1,5.134,0,7.708,7.708,0,0,0,7.7,7.7,2.567,2.567,0,1,1,0,5.134,7.709,7.709,0,0,0-7.7,7.7,2.567,2.567,0,1,1-5.134,0Z" fill="#b57ad2"/>
</svg>

