<svg xmlns="http://www.w3.org/2000/svg" xmlns:xlink="http://www.w3.org/1999/xlink" width="720.23" height="634.774" viewBox="0 0 720.23 634.774">
  <defs>
    <clipPath id="clip-path">
      <path id="Clip_82" data-name="Clip 82" d="M0,0H202.459V99.181H0Z" transform="translate(0.358 0.107)" fill="none"/>
    </clipPath>
  </defs>
  <g id="image" transform="translate(0 -0.001)">
    <path id="Fill_1" data-name="Fill 1" d="M1.1,0c.12-.07.869.919,1.976,2.866a50.377,50.377,0,0,1,3.782,8.69c2.636,7.579,4.29,18.768,3.309,30.97A155.426,155.426,0,0,1,4.2,73.063C1.973,80.689.335,85.318.052,85.24c-.312-.086.794-4.876,2.621-12.577,1.78-7.7,4.32-18.352,5.271-30.3A87.816,87.816,0,0,0,5.353,12.022C3.229,4.467.751.185,1.1,0" transform="translate(573.317 549.533)" fill="#fff"/>
    <path id="Fill_3" data-name="Fill 3" d="M.019,0C.159-.06,1.065,1.6,2.577,4.655S6.21,12.168,8.72,17.727C13.7,28.846,20.4,44.411,25.266,62.481a170.1,170.1,0,0,1,4.844,25.9,128.134,128.134,0,0,1,.5,21.517,97.434,97.434,0,0,1-1.919,14.373c-.736,3.346-1.319,5.149-1.45,5.119-.412-.08,1.408-7.446,1.794-19.565.481-12.095-1.107-28.9-5.926-46.765S11.874,29.61,7.272,18.353C4.954,12.72,3.08,8.161,1.783,5.009.516,1.845-.122.065.019,0" transform="translate(581.917 488.474)" fill="#fff"/>
    <path id="Fill_5" data-name="Fill 5" d="M19.328.011c.258.278-2.272,2.69-5.555,7.17-.815,1.125-1.7,2.356-2.528,3.762-.906,1.354-1.694,2.908-2.571,4.512A67.885,67.885,0,0,0,4.3,26.489,67.863,67.863,0,0,0,2.136,38.156c-.109,1.823-.268,3.559-.222,5.186-.045,1.632.049,3.147.14,4.533.4,5.538,1.259,8.927.892,9.026-.222.076-1.638-3.2-2.46-8.865a39.5,39.5,0,0,1-.421-4.655,52.73,52.73,0,0,1,.021-5.376A59.975,59.975,0,0,1,2.159,25.872a59.814,59.814,0,0,1,4.7-11.379A51.5,51.5,0,0,1,9.7,9.929a39.153,39.153,0,0,1,2.832-3.72c3.711-4.363,6.651-6.379,6.8-6.2" transform="translate(284.366 440.132)" fill="#fff"/>
    <path id="Fill_7" data-name="Fill 7" d="M11.823.045c.187.3-1.223,1.377-3.064,3.439A27.8,27.8,0,0,0,5.878,7.352,30.013,30.013,0,0,0,3.369,12.66a29.786,29.786,0,0,0-1.3,5.727,27.574,27.574,0,0,0-.117,4.821c.179,2.757.625,4.476.292,4.6-.239.1-1.242-1.473-1.856-4.387a20.679,20.679,0,0,1-.369-5.2,24.9,24.9,0,0,1,1.236-6.28,24.93,24.93,0,0,1,2.9-5.707,20.6,20.6,0,0,1,3.5-3.869C9.936.437,11.7-.184,11.823.045" transform="translate(297.809 459.647)" fill="#fff"/>
    <path id="Fill_9" data-name="Fill 9" d="M.018.007c.115-.1,1.114.882,2.827,2.755A42.992,42.992,0,0,1,5.831,6.3c1.1,1.427,2.421,3.012,3.662,4.917q.96,1.41,2.01,2.95c.692,1.033,1.319,2.163,2.017,3.3,1.429,2.267,2.71,4.826,4.1,7.495a122.975,122.975,0,0,1,7.15,18.223,123.113,123.113,0,0,1,3.905,19.182c.281,3,.6,5.844.628,8.521.034,1.338.122,2.627.1,3.871s-.057,2.431-.083,3.567c-.006,2.276-.255,4.322-.4,6.12a43.01,43.01,0,0,1-.586,4.587c-.419,2.505-.723,3.872-.875,3.851-.393-.052.348-5.6.286-14.574q-.032-1.683-.062-3.519c-.026-1.223-.156-2.492-.229-3.806-.11-2.632-.49-5.423-.82-8.364a137.309,137.309,0,0,0-4.006-18.8,137.33,137.33,0,0,0-6.859-17.963c-1.32-2.647-2.52-5.2-3.857-7.466-.654-1.143-1.236-2.278-1.877-3.319s-1.268-2.034-1.861-2.986C3.355,4.521-.286.265.018.007" transform="translate(227.181 257.501)" fill="#fff"/>
    <path id="Fill_11" data-name="Fill 11" d="M.024.008c.19-.169,2.752,2.228,6.012,6.847a66.141,66.141,0,0,1,5.05,8.539A76.365,76.365,0,0,1,15.523,26.72a76.432,76.432,0,0,1,2.431,11.919,66.127,66.127,0,0,1,.4,9.913c-.226,5.647-1.075,9.052-1.325,9.013-.359-.044-.071-3.491-.253-9.015a88.387,88.387,0,0,0-.859-9.643,92.35,92.35,0,0,0-2.532-11.554A92.194,92.194,0,0,0,9.23,16.278,88.5,88.5,0,0,0,4.711,7.713C1.861,2.978-.252.241.024.008" transform="translate(252.439 267.951)" fill="#fff"/>
    <path id="Fill_13" data-name="Fill 13" d="M56.011,3.965,54.069,0,0,41.307,23.588,79.515,77.41,34.141Z" transform="translate(107.985 446.541)" fill="#b57ad2"/>
    <path id="Fill_15" data-name="Fill 15" d="M0,0,20.722,35.831l1.325-.591L3.594,1.737Z" transform="translate(110.251 488.731)" fill="#d7d4d4"/>
    <path id="Fill_17" data-name="Fill 17" d="M52.677,0,0,39.009a2.354,2.354,0,0,0,1.528,1.354,4.24,4.24,0,0,0,2.066.385L58.974,2.85a16.714,16.714,0,0,1-4.35-1.606A13.065,13.065,0,0,0,52.677,0" transform="translate(110.251 449.721)" fill="#b57ad2"/>
    <path id="Fill_19" data-name="Fill 19" d="M57.724,0,0,38.551,18.748,74.077,21.768,79,79.493,36.28s-6.08-9.073-9.73-14.551S58.947,3.33,58.557,2.5A19.736,19.736,0,0,1,57.724,0" transform="translate(112.855 451.042)" fill="#b57ad2"/>
    <path id="Fill_21" data-name="Fill 21" d="M17.97,3.33,19.6,0,65,34.687,45.2,66.772,0,28.669Z" transform="translate(628.642 181.562)" fill="#775298"/>
    <path id="Fill_23" data-name="Fill 23" d="M18.514,0,1.114,30.088,0,29.593,15.5,1.46Z" transform="translate(673.229 216.99)" fill="#d7d4d4"/>
    <path id="Fill_25" data-name="Fill 25" d="M5.289,0,49.523,32.758a1.981,1.981,0,0,1-1.283,1.137,3.566,3.566,0,0,1-1.736.323L0,2.393A13.976,13.976,0,0,0,3.654,1.044,10.951,10.951,0,0,1,5.289,0" transform="translate(642.22 184.231)" fill="#f5f3f3"/>
    <path id="Fill_27" data-name="Fill 27" d="M18.282,0,66.754,32.371,51.012,62.2l-2.536,4.131L0,30.464s5.107-7.62,8.171-12.22S17.255,2.794,17.582,2.1a16.6,16.6,0,0,0,.7-2.1" transform="translate(622.802 185.342)" fill="#b57ad2"/>
    <path id="Fill_29" data-name="Fill 29" d="M2.194,0A5.2,5.2,0,0,0,.48,6.327c1.715,3.955,9.23,15.688,19.383,15.292C20.278,21.6,7.072,0,7.072,0Z" transform="translate(97.25 122.461)" fill="#ff7b5b"/>
    <path id="Fill_31" data-name="Fill 31" d="M49.069,9.552S36.374-1.788,32.309.244C27.344,2.726-1.079,30.571.032,43.688c.456,5.373,6.711.77,17.858-10.791s25.188-6.605,25.188-6.605Z" transform="translate(34.844 329.205)" fill="#b57ad2"/>
    <path id="Fill_33" data-name="Fill 33" d="M49.5,9.193,34.178,0S-5.548,37.239.658,42.2c4.708,3.765,7.475.388,18.623-11.173S44.55,26.12,44.55,26.12Z" transform="translate(65.254 348.688)" fill="#b57ad2"/>
    <path id="Fill_35" data-name="Fill 35" d="M60.924,0,63.8,40.806,0,24.188Z" transform="translate(147.455 235.366)" fill="#f3a683"/>
    <path id="Fill_37" data-name="Fill 37" d="M8.218,0S64.024,3.517,71.455,1.038c0,0,10.906,107.126-8.5,118.683S0,114.354,0,114.354L11.758,91.236,37.11,89.585V48.3l-1.819.412Z" transform="translate(139.237 260.958)" fill="#112129"/>
    <path id="Fill_39" data-name="Fill 39" d="M10.4,73.072S-3.637,78.853.9,92.889c0,0,47.916,37.567,71.231,28.9C85.2,116.93,99.23,79.874,109.047,48.215L143.591,1.038s-16.292.815-21.727.794C111.476,1.793,80.354,0,80.354,0S64.1,85.045,58.305,87.109,10.4,73.072,10.4,73.072" transform="translate(67.101 260.958)" fill="#22343d"/>
    <path id="Fill_41" data-name="Fill 41" d="M0,119.73S33.445,88.354,39.225,80.1,57.394,44.18,72.667,32.621L65.236,16.933s4.544-2.476,7.431,4.127C72.667,21.06,83.4-.4,85.879.006S80.926,16.52,80.926,16.52,91.25,1.657,94.139,2.071s-7.432,16.708-7.432,16.708S98.265,5.374,99.919,7.025s-9.084,11.754-9.084,11.754,11.56-6.636,12.8-4.449S92.074,22.3,92.074,22.3s-1.239,9.5-9.082,13.623c0,0-15.532,41.959-29.571,55.582l-45.1,46.863Z" transform="translate(160.46 34.563)" fill="#ffc6b2"/>
    <path id="Fill_43" data-name="Fill 43" d="M120.536,0s-31.69,33.146-40,38.847S44.446,56.676,32.744,71.841l-15.62-7.578s-2.519,4.517,4.06,7.467c0,0-21.57,10.533-21.179,13.015s16.56-4.8,16.56-4.8S1.6,90.131,1.991,93.022s16.778-7.276,16.778-7.276S5.255,97.179,6.892,98.845s11.84-8.969,11.84-8.969-6.746,11.5-4.566,12.754,8.076-11.484,8.076-11.484S31.747,90,35.951,82.192c0,0,39.748-15.813,53.505-29.722L138.92,17.427Z" transform="translate(0 170.554)" fill="#ffc6b2"/>
    <path id="Fill_45" data-name="Fill 45" d="M16.028,10.689,0,26.377,4.065,44.062s15.791,37.9,18.178,47.152c3.711,14.379-2.291,36.3-2.291,36.3s26.77-2.223,51.128-3.048S103.4,115.8,103.4,115.8,82.285,45.47,67.7,25.81,47.818,0,47.818,0L26.349,4.692Z" transform="translate(116.388 146.655)" fill="#fff"/>
    <path id="Fill_47" data-name="Fill 47" d="M24.5,35.583,41.2,24.914S43.755,13.483,23.616,0L0,14.8Z" transform="translate(154.95 134.564)" fill="#fff"/>
    <path id="Fill_49" data-name="Fill 49" d="M27.752.334C18.6,1.618,1.866,24.819,0,24.775c0,0,11.775,19.213,21.1,19.837,0,0,41.047-49.1,6.65-44.278" transform="translate(92.014 171.458)" fill="#fff"/>
    <path id="Fill_51" data-name="Fill 51" d="M50.966,52.066S37.659,42.124,38.12,38.161c.117-1,1.962-2.619,2.441-4.058,2.58-7.74-9.86-27.684-17.5-31.888-6.013-3.306-3.378-3.6-16.033,3.921S1.579,26.659,7.23,33.384c5.343,6.357,11.461,9.08,16.966,9.539l7.827,17.383Z" transform="translate(101.118 104.629)" fill="#ffc6b2"/>
    <path id="Fill_53" data-name="Fill 53" d="M.673,18.982C-1.844,12.808,2.922,5.033,11.319,1.608S28.564.41,31.086,6.58,25.151,22.029,20.434,23.953,3.188,25.152.673,18.982" transform="translate(127.399 151.514)" fill="#ffc6b2"/>
    <path id="Fill_55" data-name="Fill 55" d="M4.815,0S.5-.234.02,2.642s7.912,2.877,11.029.719Z" transform="translate(103.534 138.009)" fill="#ffc6b2"/>
    <path id="Fill_57" data-name="Fill 57" d="M17.666,48.715c-.82-5.2-6.359-9.062-6.083-14.126,2.655.021,4.36-3.267,3.152-6.077-.476-1.1-1.281-2.049-1.8-3.139s-.65-2.513.138-3.129a2.594,2.594,0,0,1,1.362-.39c3.936-.4,10.68.776,14.3-.567,3.449-1.278,7.145-3.764,6.786-7.989-.313-3.679-3.563-6.662-6.547-8.916-1.71-1.292-6.6-4.671-8.439-4.364-2.814.468-3.5,4.222-3.7,7.363a4.887,4.887,0,0,0-6.583-.049C8.548,8.859,7.738,11.281,6.992,13.62s-1.538,4.769-3.227,6.323C2.192,21.391-.3,22.487.029,24.95c.388,2.936,4.224,3.98,6,6.483-.437-.614-.807,3.306-.555,3.97.757,2,2.645,3.327,4.011,4.858,2.908,3.264,4.331,6.55,8.184,8.455" transform="translate(92.841 91.935)" fill="#ff7b5b"/>
    <path id="Fill_59" data-name="Fill 59" d="M9.834,0,0,5.085S11.812,13.658,9.834,0" transform="translate(124.785 128.766)" fill="#fff"/>
    <path id="Fill_61" data-name="Fill 61" d="M5.666.9c.538,1.02-.258,2.494-1.777,3.293S.7,4.812.167,3.792.425,1.3,1.944.5s3.184-.62,3.722.4" transform="translate(115.424 129.883)" fill="#ffb2a0"/>
    <path id="Fill_63" data-name="Fill 63" d="M5.666.9c.538,1.02-.258,2.494-1.777,3.293S.7,4.812.167,3.792.425,1.3,1.944.5s3.184-.62,3.722.4" transform="translate(129.784 120.076)" fill="#ffb2a0"/>
    <path id="Fill_65" data-name="Fill 65" d="M6.5,8.213c-.045-.057.138-.3.563-.606A10.494,10.494,0,0,0,8.7,6.391c.52-.547.706-1.689-.089-1.849-.827-.281-1.765.667-2.842,1.568l-.791.656a1.749,1.749,0,0,1-1.289.485A2.9,2.9,0,0,1,1.855,5.957,8.961,8.961,0,0,1,.328,3C-.2,1.172.037-.01.164,0,.341-.008.4,1.129,1.07,2.739A9.843,9.843,0,0,0,2.649,5.308c.359.435.81.841,1.132.854.135.006.24-.039.494-.252l.781-.656C5.6,4.816,6.067,4.373,6.687,3.96a2.624,2.624,0,0,1,2.231-.4A1.69,1.69,0,0,1,10.08,5.4a2.585,2.585,0,0,1-.814,1.544A6.485,6.485,0,0,1,7.275,7.989c-.468.177-.724.287-.773.224" transform="translate(121.252 120.193)" fill="#ff7b5b"/>
    <path id="Fill_67" data-name="Fill 67" d="M0,2.06S6.273,2.1,9.677,0A14.594,14.594,0,0,1,1.036,4.452Z" transform="translate(125.315 145.492)" fill="#ffa192"/>
    <path id="Fill_69" data-name="Fill 69" d="M3.816.461c-.057.31-.934.406-1.861.815-.94.38-1.619.943-1.88.768C-.193,1.9.25.783,1.52.249S3.9.169,3.816.461" transform="translate(124.219 118.963)" fill="#22343d"/>
    <path id="Fill_71" data-name="Fill 71" d="M.07,3.383C-.167,3.208.2,2.2,1.107,1.186,2.022.153,3.189-.191,3.313.1s-.581.935-1.382,1.843S.326,3.575.07,3.383" transform="translate(115.672 124.104)" fill="#22343d"/>
    <path id="Fill_73" data-name="Fill 73" d="M.416,5.856c-.508-.377-.9-1.989,1.041-4.162C3.42-.527,5.614-.136,5.877.481c.283.606-.448,1.468-2.171,3.421C1.957,5.849.967,6.268.416,5.856" transform="translate(110.56 120.073)" fill="#ff7b5b"/>
    <path id="Fill_75" data-name="Fill 75" d="M.085,3.569C-.2,3.043.114,1.512,2.644.445,5.21-.658,6.92.559,6.9,1.19c0,.628-.971,1.068-3.225,2.039C1.4,4.183.389,4.142.085,3.569" transform="translate(121.218 113.802)" fill="#ff7b5b"/>
    <path id="Fill_77" data-name="Fill 77" d="M65.584.023c.166.164-2.559,3.23-8.214,6.568a49.779,49.779,0,0,1-24.478,6.716A49.781,49.781,0,0,1,8.316,6.953C2.615,3.7-.156.672.007.505c.235-.3,3.334,2.255,9.043,5.05a54.015,54.015,0,0,0,23.824,5.521A54.033,54.033,0,0,0,56.617,5.2C62.282,2.325,65.345-.273,65.584.023" transform="translate(595.353 132.579)" fill="#775298"/>
    <path id="Fill_79" data-name="Fill 79" d="M57.095,10.49c-.154.339-3.171-.913-8.254-2.046A88.5,88.5,0,0,0,39.81,6.96c-3.436-.38-7.234-.682-11.245-.968s-7.853-.6-11.341-1.036a73.3,73.3,0,0,1-9.2-1.711C2.836,1.892-.1.291,0,.066.137-.275,3.224.778,8.357,1.7c2.561.489,5.651.867,9.092,1.21,3.449.315,7.259.573,11.276.856s7.868.654,11.353,1.154a64.1,64.1,0,0,1,9.164,2c5.133,1.567,7.968,3.359,7.853,3.572" transform="translate(542.182 117.481)" fill="#775298"/>
    <g id="Group_83" data-name="Group 83" transform="translate(517.413 41.843)">
      <path id="Clip_82-2" data-name="Clip 82" d="M0,0H202.459V99.181H0Z" transform="translate(0.358 0.107)" fill="none"/>
      <g id="Group_83-2" data-name="Group 83" clip-path="url(#clip-path)">
        <path id="Fill_81" data-name="Fill 81" d="M20.364,20.089C30,18.045,39.984,19.8,49.7,21.424S69.5,24.5,79,21.895C96.156,17.188,109.176-.139,126.962,0c7.324.057,14.227,3.184,21.362,4.839,8.86,2.056,18.09,1.835,27.065,3.3s18.249,5.076,23.322,12.624c6.018,8.958,4.368,21.593-1.947,30.345s-16.429,14.082-26.791,17.1c-7.228,2.106-14.928,3.324-21.183,7.514-6.327,4.239-10.458,11.062-16.352,15.883-14.792,12.095-37.812,8.628-53.091-2.845-3.839-2.882-7.4-6.227-11.71-8.336-17.543-8.586-42.773,2.78-57.881-12.842C-5.587,51.722-3.4,25.129,20.364,20.089" transform="translate(0.358 0.107)" fill="#b57ad2"/>
      </g>
    </g>
    <path id="Fill_84" data-name="Fill 84" d="M0,7.669S16.073,42.115,17.954,35.737s1.255-21.7.248-23.888S10.62,0,10.62,0Z" transform="translate(533.321 361.62)" fill="#ffb2a0"/>
    <path id="Fill_86" data-name="Fill 86" d="M3.389,21.652c1.487,1.9.494-.141,2.178,2.606,7-.244,11.7-6.165,11.7-6.165s11.109.294,10.981-1.69-10.649-1.245-10.649-1.245,11.132-3.5,10.521-5.241-13.459,3.819-13.459,3.819S27.625,5.687,25.709,4.4s-14.392,5.738-14.392,5.738S22.161,1.228,20.536.08,3.871,10.523,3.871,10.523C4.091,4.821,0,5.021,0,5.021L.169,18.944a24.746,24.746,0,0,1,3.22,2.708" transform="translate(646.155 69.088)" fill="#ffc6b2"/>
    <path id="Fill_88" data-name="Fill 88" d="M15.263,27.724c-2.377.438-.534-.388-3.62.554-5.068-4.832-4.4-12.426-4.4-12.426S-1.252,8.7.158,7.3s8.792,6.139,8.792,6.139-6-10.005-4.386-10.9,7.532,11.791,7.532,11.791S7.74-.3,10.029,0s6.953,13.842,6.953,13.842S14.787-.01,16.76.209s5.531,18.872,5.531,18.872c3.621-4.41,6.546-1.544,6.546-1.544l-9.18,10.094a35.209,35.209,0,0,0-4.394.093" transform="translate(469.614 0.001)" fill="#ffc6b2"/>
    <path id="Fill_90" data-name="Fill 90" d="M16.593.035C13.519-.47,6.087,4.47,2.368,12.52.286,17.026-1.146,21.6,1.243,28.93c1.125,3.447,3.48,3.879,4.006,5.423.664,1.955-1.536,8.117-1.536,8.117l8.774,3.543c.57-4.233,1.216-8.492,5.531-10.33a44.843,44.843,0,0,0,4.865-2c4.11-2.356,6.306-7.51,7.994-11.729C32.137,18.805,24.3,1.3,16.593.035" transform="translate(525.944 85.848)" fill="#ffc6b2"/>
    <path id="Fill_92" data-name="Fill 92" d="M58.142,5.9,43.442,0S-.181,80.887,0,103.33,59.915,170.7,59.915,170.7L69.99,162s-18.442-32.154-28.3-43.49S58.142,5.9,58.142,5.9" transform="translate(473.951 199.624)" fill="#ffb2a0"/>
    <path id="Fill_94" data-name="Fill 94" d="M9.141,17.2S41.539,1.829,35.029.472,13.293.983,11.2,2.165,0,10.68,0,10.68Z" transform="translate(595.936 280.465)" fill="#ffc6b2"/>
    <path id="Fill_96" data-name="Fill 96" d="M38.027,0l-22.3,8.112s-22.306,98.1-13.79,113.5,32.427,5.212,66.486-13.374L96.953,92.664,87.43,86.326s-33.2,6.5-42.52,12.989c0,0,4.865-13.783,11.353-33.24S67.223,26.755,38.027,0" transform="translate(508.504 204.82)" fill="#ffc6b2"/>
    <path id="Fill_98" data-name="Fill 98" d="M0,11.231C0,4.714,2.1,0,8.616,0S24.145,2.285,24.145,8.8,19.009,25.909,12.488,25.909,0,17.752,0,11.231" transform="translate(519.084 126.759)" fill="#ffc6b2"/>
    <path id="Fill_100" data-name="Fill 100" d="M44.6,99.764S24.326,77.831,20.271,56.345,9.326,0,9.326,0l-7.7,2.218s-3.65,47.644,0,54.939,21.476,55.874,26.9,68.631Z" transform="translate(479.637 26.061)" fill="#ffc6b2"/>
    <path id="Fill_102" data-name="Fill 102" d="M0,55.42s1.559-6.823,27.19-16.1S101.177,0,101.177,0L106,5.519S79.727,35.864,64.442,41.186,16.69,67.5,13.35,69.175C8.3,71.716,8.36,74.914,0,55.42" transform="translate(546.008 87.499)" fill="#ffc6b2"/>
    <path id="Fill_104" data-name="Fill 104" d="M20.594,0S0,6.673,0,38.006c0,0,.013,42.912,4.867,50.719a43.383,43.383,0,0,0,17.728,0C32.909,86.6,42.893,79,42.893,79l16.2-48.628L57.155,7.584,35.129,3.332s6.318,29.523-16.542,16.831C14.144,17.7,25.123.947,25.123.947Z" transform="translate(503.638 125.825)" fill="#22343d"/>
    <path id="Fill_106" data-name="Fill 106" d="M10.148,38.558,0,17.419S1.455,4.6,20.084,0c0,0,1.884,6.464,3.949,8.934s8.076,5.1,8.076,5.1Z" transform="translate(496.659 112.75)" fill="#22343d"/>
    <path id="Fill_108" data-name="Fill 108" d="M5.594,32.061l32.268-6.613S43.473,13.826,30.17,0C30.17,0,5,1.52,1.742,1.791-1.465,2.057.737,4.527.737,4.527Z" transform="translate(539.577 127.743)" fill="#22343d"/>
    <path id="Fill_110" data-name="Fill 110" d="M35.563,6.826S5.042,63.247,0,73.329c0,0,90.042,41.357,126.594-8.424,0,0-20.792-44-52.935-60.753L59.793,0,36.105,6.555" transform="translate(472.89 197.271)" fill="#22343d"/>
    <path id="Fill_112" data-name="Fill 112" d="M2.139,1.919S5.615-1.558,7.754.848,0,6.731,0,6.731Z" transform="translate(553.5 105.353)" fill="#ffc6b2"/>
    <path id="Fill_114" data-name="Fill 114" d="M96.99,4.14c.034.12-1.309.7-3.873,1.31A53.361,53.361,0,0,1,82.051,6.72,109.652,109.652,0,0,1,65.606,5.564c-6.137-.813-12.8-2.008-19.816-2.773a75.6,75.6,0,0,0-19.7.078A44.292,44.292,0,0,0,11.019,8.05,33.664,33.664,0,0,0,2.641,14.83C.946,16.763.183,18,.011,17.893c-.094-.049.416-1.439,1.952-3.6A29.944,29.944,0,0,1,10.2,6.7,43.28,43.28,0,0,1,25.751.841,72.712,72.712,0,0,1,46.027.573c7.13.778,13.8,2.041,19.87,2.957A129.036,129.036,0,0,0,82.055,5.142c9.251.258,14.85-1.383,14.935-1" transform="translate(522.242 55.72)" fill="#775298"/>
    <path id="Fill_116" data-name="Fill 116" d="M4.363,8.664c-.01.136-1,.232-2.512-.27a3.354,3.354,0,0,1-1.226-.68,1.994,1.994,0,0,1-.507-.739A1.668,1.668,0,0,1,.129,5.714c.049-.073.045-.247.141-.25l.294-.01a2.143,2.143,0,0,1,.628.076,4.928,4.928,0,0,0,.812.084,6.462,6.462,0,0,0,1.531-.154A6.207,6.207,0,0,0,7.693,2.217C8.358.945,8.416-.011,8.593,0c.125-.016.372,1-.177,2.535A6.408,6.408,0,0,1,6.867,4.905,6.478,6.478,0,0,1,3.782,6.549a6.777,6.777,0,0,1-1.82.157,7.016,7.016,0,0,1-.783-.091c-.109-.018-.1-.042-.117-.029a.082.082,0,0,0-.018.065,1.085,1.085,0,0,0,.235.411,2.865,2.865,0,0,0,.874.6c1.307.641,2.234.831,2.21,1" transform="translate(533.571 96.634)" fill="#ff7b5b"/>
    <path id="Fill_118" data-name="Fill 118" d="M0,0,11.887,4.683S1.44,11.885,0,0" transform="translate(530.696 105.674)" fill="#fff"/>
    <path id="Fill_120" data-name="Fill 120" d="M4.454,2.981c-.422.8-1.731.942-2.925.313S-.29,1.508.131.708,1.864-.236,3.057.393s1.819,1.786,1.4,2.588" transform="translate(543.204 104.946)" fill="#ffb2a0"/>
    <path id="Fill_122" data-name="Fill 122" d="M4.575,2.76c-.36.831-1.655,1.072-2.892.536S-.267,1.653.094.821,1.748-.25,2.986.286s1.95,1.643,1.59,2.474" transform="translate(529.817 98.134)" fill="#ffb2a0"/>
    <path id="Fill_124" data-name="Fill 124" d="M0,0S4.167,3.489,8.514,2.366c0,0-1.5,2.247-7.268,1.422,0,0,.479-2.476-1.246-3.788" transform="translate(529.989 118.708)" fill="#ffa192"/>
    <path id="Fill_126" data-name="Fill 126" d="M1.884.942A.942.942,0,1,1,.942,0a.942.942,0,0,1,.942.942" transform="translate(544.634 99.521)" fill="#22343d"/>
    <path id="Fill_128" data-name="Fill 128" d="M1.882.942A.941.941,0,1,1,.94,0a.942.942,0,0,1,.942.942" transform="translate(536.929 96.745)" fill="#22343d"/>
    <path id="Fill_130" data-name="Fill 130" d="M3.38,2.546c-.291.123-.853-.557-1.7-1.107C.843.864,0,.606,0,.291c-.028-.3,1.151-.547,2.3.221S3.67,2.455,3.38,2.546" transform="translate(546.164 95.408)" fill="#775298"/>
    <path id="Fill_132" data-name="Fill 132" d="M0,.861C-.019.567.992.2,2.347.233c1.379.029,2.4.7,2.256.977s-1.09.161-2.3.138S.02,1.181,0,.861" transform="translate(535.961 92.524)" fill="#775298"/>
    <path id="Fill_134" data-name="Fill 134" d="M0,17.865S4.945,35.414,10.05,33.977,11.317,8.05,11.317,8.05L6.223,0S11.008,41,0,17.865" transform="translate(540.206 365.42)" fill="#22343d"/>
    <path id="Fill_136" data-name="Fill 136" d="M0,5.965S3.6,2.042,7.954,1.389,27.895-1.118,30.183.952,17.554,9.964,17.554,9.964s5.2-3.312,3.04-4.543C16.779,3.24,0,5.965,0,5.965" transform="translate(602.557 280.031)" fill="#22343d"/>
    <path id="Fill_138" data-name="Fill 138" d="M0,1.33l4.878,9.9L7.54,9.755,1.034,0Z" transform="translate(596.375 289.364)" fill="#22343d"/>
    <path id="Fill_140" data-name="Fill 140" d="M11.974,0,0,10.791l3.548,2.957L13.6,2.809Z" transform="translate(529.852 357.65)" fill="#22343d"/>
    <path id="Fill_142" data-name="Fill 142" d="M40.424,105.673c-3.405-8.45-4.714-17.857-9.8-25.419C23.316,69.374,9.271,63.976,3.338,52.285.817,47.32.027,41.64,0,36.073-.048,25.057,3.25,13.347,11.759,6.348,21.536-1.7,36.206-1.584,47.658,3.82s20.2,15.212,27.633,25.458S89.242,50.515,97.9,59.747c6.422,6.845,14.04,12.749,18.878,20.791,13.262,22.048-.383,49.944-23.8,57.9-20.573,6.99-45.444-15.1-52.562-32.768" transform="translate(251.059 144.55)" fill="#22343d"/>
    <path id="Fill_144" data-name="Fill 144" d="M25.009,4.47c2.036,1.674-.185.515,2.777,2.444-.661,7.4-7.506,12.061-7.506,12.061s-.289,11.78-2.488,11.538S17,19.169,17,19.169s-4.506,11.6-6.413,10.864,4.993-14.05,4.993-14.05-9.669,13.306-11,11.208,7.181-14.936,7.181-14.936S1.26,23.267.073,21.485,12.609,4.392,12.609,4.392C6.258,4.322,6.708,0,6.708,0L22.177.917A26.419,26.419,0,0,0,25.009,4.47" transform="translate(237.166 401.253)" fill="#ffc6b2"/>
    <path id="Fill_146" data-name="Fill 146" d="M16.229,29.4c2.647.464.593-.412,4.027.586C25.9,24.862,25.149,16.81,25.149,16.81s9.461-7.586,7.892-9.068-9.785,6.508-9.785,6.508S29.933,3.642,28.137,2.687s-8.381,12.5-8.381,12.5S24.6-.32,22.054.005s-7.738,14.678-7.738,14.678S16.758-.01,14.561.223,8.806,19.7,8.806,19.7C3.626,15.487,0,18.185,0,18.185L11.338,29.3a41.335,41.335,0,0,1,4.891.1" transform="translate(393.725 154.157)" fill="#ffc6b2"/>
    <path id="Fill_148" data-name="Fill 148" d="M15.038.041C19.824-.706,34.417,8.75,30.7,27.954c-.31,1.612-2.416,5.162-2.941,6.629-.663,1.859,4.5,8.664,4.5,8.664L18.935,47.5c-.568-4.025.388-9.908-3.918-11.656a46.154,46.154,0,0,1-4.855-1.9c-4.1-2.241-6.294-7.143-7.98-11.155A24.159,24.159,0,0,1,0,13.318C.089,5.125,7.346,1.243,15.038.041" transform="translate(330.156 247.849)" fill="#ffc6b2"/>
    <path id="Fill_150" data-name="Fill 150" d="M26.281,9.551C26.281,2.638,24.089,0,16.833,0S0,2.638,0,9.551,5.123,25.115,12.382,25.115s13.9-8.651,13.9-15.565" transform="translate(345.601 290.933)" fill="#ffc6b2"/>
    <path id="Fill_152" data-name="Fill 152" d="M0,105.791S22.56,82.533,27.073,59.75,39.256,0,39.256,0L47.83,2.351s4.063,50.523,0,58.259-27.075,61.471-26.623,75.225Z" transform="translate(366.152 181.791)" fill="#ffc6b2"/>
    <path id="Fill_154" data-name="Fill 154" d="M67.235,0s-7.671,1.289-19.4,27.942S0,104.21,0,104.21l5.867,5.4s35.2-26.219,41.964-42.123,15.341-35.677,19.4-34.82S88.443,9.885,67.235,0" transform="translate(258.702 298.844)" fill="#ffc6b2"/>
    <path id="Fill_156" data-name="Fill 156" d="M23.595,47.462,34.1,18.471S32.479,4.874,11.745,0L0,16.92Z" transform="translate(362.742 273.719)" fill="#b57ad2"/>
    <path id="Fill_158" data-name="Fill 158" d="M22.439,0S10.045,1.044,0,23.105c0,0,11.047,15.25,19.129,15.764,0,0,30.017-25.654,3.309-38.869" transform="translate(307 296.619)" fill="#b57ad2"/>
    <path id="Fill_160" data-name="Fill 160" d="M21.329,8.131S3.439,44.659,1.347,37.9s-1.4-23.012-.278-25.331S9.509,0,9.509,0Z" transform="translate(342.163 550.107)" fill="#ffc6b2"/>
    <path id="Fill_162" data-name="Fill 162" d="M13.187,6.254,29.548,0S78.1,85.776,77.9,109.574s-66.686,71.444-66.686,71.444L0,171.784s31.513-46.327,42.485-58.349C47.972,107.423,8.691,77.96,2.741,49.61S13.187,6.254,13.187,6.254" transform="translate(351.671 378.323)" fill="#22343d"/>
    <path id="Fill_164" data-name="Fill 164" d="M32.115,12.385S-1.349,37.049.042,30.127,9.863,9.06,11.976,7.487,25.518,0,25.518,0Z" transform="translate(234.375 526.718)" fill="#ffc6b2"/>
    <path id="Fill_166" data-name="Fill 166" d="M60.454,28.049,108.858,0s1.921,97.434-9.7,118.5S5.529,152.915,5.529,152.915L0,139.815s50.6-30.142,66.131-36.041-5.677-75.725-5.677-75.725" transform="translate(259.892 386.902)" fill="#22343d"/>
    <path id="Fill_168" data-name="Fill 168" d="M29.693,0S-5.948,12.618.866,47.236,19.034,88.343,19.034,88.343l20.44-33.534L59.994,10.893l-20.521-2.6Z" transform="translate(319.481 367.716)" fill="#22343d"/>
    <path id="Fill_170" data-name="Fill 170" d="M40.762,0A56.456,56.456,0,0,1,67,47.93s-3.334,37.879-8.736,46.155a50.6,50.6,0,0,1-19.732,0C27.054,91.837,15.943,83.769,15.943,83.769L6.976,37.393,0,10.315,3.782,9.068,23.517,6.9s-2.835,29.476,19.2,14.839C47.359,18.656,36.94,3.286,36.94,3.286Z" transform="translate(325.39 287.583)" fill="#b57ad2"/>
    <path id="Fill_172" data-name="Fill 172" d="M0,55.01,55.017,87.1,85.965,28.652,34.386,0Z" transform="translate(382.213 107.018)" fill="#fff"/>
    <path id="Fill_174" data-name="Fill 174" d="M29.129,81.092,68.477,56.736,35.969,0,0,23.321Z" transform="translate(429.622 360.728)" fill="#fff"/>
    <path id="Fill_176" data-name="Fill 176" d="M.011.005c.1-.093,1.319,1.01,3.24,3.259a66.822,66.822,0,0,1,7.142,10.3A74.9,74.9,0,0,1,17.48,30.779c1.923,6.727,3.212,14.288,6.167,21.572a47.949,47.949,0,0,0,5.607,9.909,53.811,53.811,0,0,0,7.259,7.776,51.679,51.679,0,0,0,15.531,9.141,49.953,49.953,0,0,0,11.914,2.843c2.89.32,4.524.367,4.526.557.008.119-1.621.367-4.589.31a42.954,42.954,0,0,1-12.371-2.22,50.484,50.484,0,0,1-16.338-9.062,53.634,53.634,0,0,1-7.679-8.032A48.693,48.693,0,0,1,21.582,53.2c-3.079-7.613-4.3-15.242-6.086-21.879a79.975,79.975,0,0,0-6.491-17A88.513,88.513,0,0,0,2.565,3.8C.875,1.41-.116.117.011.005" transform="translate(265.002 200.049)" fill="#22343d"/>
    <path id="Fill_178" data-name="Fill 178" d="M.113,0c.4-.062.8,5.353,3.827,13.363a60.216,60.216,0,0,0,7,13.181,64.067,64.067,0,0,0,5.58,6.836c2.09,2.272,4.367,4.579,6.518,7.167,4.315,5.223,7.283,10.869,10.078,15.852a64.62,64.62,0,0,1,6.109,14.1,25.846,25.846,0,0,1,.869,10.38c-.388,2.449-1,3.689-1.1,3.655-.193-.05.122-1.361.232-3.733a28.814,28.814,0,0,0-1.517-9.856A70.762,70.762,0,0,0,31.321,57.4c-2.887-4.923-5.882-10.455-10-15.433-2.069-2.491-4.313-4.79-6.416-7.118a62.119,62.119,0,0,1-5.659-7.144A56.23,56.23,0,0,1,2.455,13.893,49.951,49.951,0,0,1,.19,3.8C-.088,1.369-.013.012.113,0" transform="translate(332.493 162.51)" fill="#22343d"/>
    <path id="Fill_180" data-name="Fill 180" d="M6.585,8.157c-.021-.156.875-.3,1.721-1.292a1.518,1.518,0,0,0,.388-.758,1.208,1.208,0,0,0-.4-.783,1.143,1.143,0,0,0-.935-.308c-.4.029-.879.226-1.509.32A4,4,0,0,1,2.682,4.107a11.261,11.261,0,0,1-1.7-1.942C.161.949-.1.071.031.006.177-.072.674.655,1.6,1.675A16.3,16.3,0,0,0,3.347,3.323a3.216,3.216,0,0,0,2.35.908c.442-.057.956-.263,1.583-.305a2.176,2.176,0,0,1,1.738.669,2.057,2.057,0,0,1,.6,1.6,2.138,2.138,0,0,1-.744,1.218c-1.213,1.062-2.325.888-2.286.744" transform="translate(342.889 260.607)" fill="#ff7b5b"/>
    <path id="Fill_182" data-name="Fill 182" d="M10.567,0,0,3.842S8.965,11.684,10.567,0" transform="translate(345.409 269.679)" fill="#fff"/>
    <path id="Fill_184" data-name="Fill 184" d="M4.453.707c.422.8-.2,1.961-1.4,2.588s-2.5.489-2.925-.313.2-1.96,1.4-2.588S4.031-.1,4.453.707" transform="translate(339.901 268.318)" fill="#ffb2a0"/>
    <path id="Fill_186" data-name="Fill 186" d="M4.6.847c.346.838-.385,1.932-1.63,2.447S.432,3.549.086,2.711.471.779,1.718.264,4.254.009,4.6.847" transform="translate(352.281 261.755)" fill="#ffb2a0"/>
    <path id="Fill_188" data-name="Fill 188" d="M0,.406A20,20,0,0,0,8.041,0,11.235,11.235,0,0,1,2.191,2.66,6.294,6.294,0,0,0,0,.406" transform="translate(345.721 283.573)" fill="#ffa192"/>
    <path id="Fill_190" data-name="Fill 190" d="M1.55.223A.941.941,0,1,1,.223.332.941.941,0,0,1,1.55.223" transform="translate(347.783 260.006)" fill="#22343d"/>
    <path id="Fill_192" data-name="Fill 192" d="M1.55.223A.941.941,0,1,1,.223.332.941.941,0,0,1,1.55.223" transform="translate(340.683 264.091)" fill="#22343d"/>
    <path id="Fill_194" data-name="Fill 194" d="M3.962.613c-.094.3-.976.291-1.945.585-.978.263-1.72.74-1.96.534C-.192,1.56.383.5,1.71.125S4.08.334,3.962.613" transform="translate(345.413 255.686)" fill="#22343d"/>
    <path id="Fill_196" data-name="Fill 196" d="M.07,3.382C-.167,3.207.2,2.2,1.107,1.187,2.02.154,3.189-.19,3.311.1S2.73,1.033,1.929,1.94.326,3.575.07,3.382" transform="translate(337.039 260.325)" fill="#22343d"/>
    <path id="Fill_198" data-name="Fill 198" d="M5.214,1.349S1.825-1.5.2,1.078s7.32,3.931,7.32,3.931Z" transform="translate(327.91 270.203)" fill="#ffc6b2"/>
    <path id="Fill_200" data-name="Fill 200" d="M17.663,0S12.8,2.112,11.538,3.381-1.349,24.712.13,27.247s13.131-6.069,13.131-6.069S3.511,23.024,17.663,0" transform="translate(233.972 531.088)" fill="#b57ad2"/>
    <path id="Fill_202" data-name="Fill 202" d="M4.615,0S1.164,3.73.632,5.443s-1.486,24.876,1,26.432,9.289-11.226,9.289-11.226S2.793,27.016,4.615.054" transform="translate(341.83 557.621)" fill="#b57ad2"/>
  </g>
</svg>
