<svg xmlns="http://www.w3.org/2000/svg" width="140.571" height="122.973" viewBox="0 0 140.571 122.973">
  <g id="working-time" transform="translate(0 -0.013)">
    <path id="Path" d="M43.166,23.783a2.121,2.121,0,0,1-2.121-2.121V8.243a4.005,4.005,0,0,0-4-4H8.243a4.005,4.005,0,0,0-4,4V21.662a2.121,2.121,0,0,1-4.242,0V8.243A8.253,8.253,0,0,1,8.244,0h28.8a8.253,8.253,0,0,1,8.244,8.243V21.662a2.121,2.121,0,0,1-2.121,2.121Z" transform="translate(34.749 0.013)" fill="#2b4d66"/>
    <path id="Path-2" data-name="Path" d="M99.838,55.315H8.069A8.069,8.069,0,0,1,0,47.245V0H99.838Z" transform="translate(7.473 32.384)" fill="#fff"/>
    <path id="Path-3" data-name="Path" d="M0,24.335a7.184,7.184,0,0,0,5.15,2.179H99.838V0H0Z" transform="translate(7.473 32.384)" fill="#b57ad2"/>
    <path id="Path-4" data-name="Path" d="M108.008,0H6.777a6.774,6.774,0,0,0-6.6,8.31L5.615,31.658a7.2,7.2,0,0,0,7.009,5.564h95.25l6.731-28.913A6.774,6.774,0,0,0,108.008,0Z" transform="translate(0 16.019)" fill="#fff"/>
    <path id="Path-5" data-name="Path" d="M7.347,0H.134a6.774,6.774,0,0,1,6.6,8.31L0,37.223H7.213L13.944,8.31A6.774,6.774,0,0,0,7.347,0Z" transform="translate(100.661 16.019)" fill="#b57ad2"/>
    <circle id="Oval" cx="37.637" cy="37.637" r="37.637" transform="translate(65.297 47.712)" fill="#b57ad2"/>
    <path id="Path-6" data-name="Path" d="M2.965,0Q1.468,0,0,.116A37.64,37.64,0,0,1,34.673,37.637,37.64,37.64,0,0,1,0,75.159q1.467.114,2.965.116A37.637,37.637,0,0,0,2.965,0Z" transform="translate(99.97 47.712)" fill="#b57ad2"/>
    <circle id="Oval-2" data-name="Oval" cx="28.073" cy="28.073" r="28.073" transform="translate(74.861 57.276)" fill="#f4fbff"/>
    <path id="Path-7" data-name="Path" d="M3.834,0A28.305,28.305,0,0,0,0,.262,28.078,28.078,0,0,1,24.239,28.073,28.078,28.078,0,0,1,0,55.885,28.074,28.074,0,1,0,3.834,0Z" transform="translate(99.1 57.276)" fill="#daf1f4"/>
    <g id="Group" transform="translate(80.17 62.598)">
      <path id="Path-8" data-name="Path" d="M2.121,5.214A2.121,2.121,0,0,1,0,3.093V2.121a2.121,2.121,0,0,1,4.242,0v.971A2.121,2.121,0,0,1,2.121,5.214Z" transform="translate(20.643 0.225)" fill="#365e7d"/>
      <path id="Path-9" data-name="Path" d="M2.121,4.93a2.121,2.121,0,0,1-1.5-3.622L1.308.621a2.122,2.122,0,0,1,3,3l-.687.687A2.115,2.115,0,0,1,2.121,4.93Z" transform="translate(34.385 6.201)" fill="#365e7d"/>
      <path id="Path-10" data-name="Path" d="M3.093,4.242H2.121A2.121,2.121,0,0,1,2.121,0h.972a2.121,2.121,0,1,1,0,4.242Z" transform="translate(40.077 20.63)" fill="#365e7d"/>
      <path id="Path-11" data-name="Path" d="M3.093,4.242H2.121A2.121,2.121,0,0,1,2.121,0h.972a2.121,2.121,0,1,1,0,4.242Z" transform="translate(0.238 20.63)" fill="#365e7d"/>
      <path id="Path-12" data-name="Path" d="M2.808,4.93a2.114,2.114,0,0,1-1.5-.621L.622,3.622a2.121,2.121,0,0,1,3-3l.687.687a2.121,2.121,0,0,1-1.5,3.622Z" transform="translate(34.385 34.371)" fill="#365e7d"/>
      <path id="Path-13" data-name="Path" d="M2.121,5.214A2.121,2.121,0,0,1,0,3.093V2.121a2.121,2.121,0,0,1,4.242,0v.972A2.121,2.121,0,0,1,2.121,5.214Z" transform="translate(20.643 40.064)" fill="#365e7d"/>
      <path id="Path-14" data-name="Path" d="M2.121,4.93a2.121,2.121,0,0,1-1.5-3.622L1.308.621a2.122,2.122,0,1,1,3,3l-.687.687A2.116,2.116,0,0,1,2.121,4.93Z" transform="translate(6.215 34.372)" fill="#365e7d"/>
      <path id="Path-15" data-name="Path" d="M2.808,4.93a2.115,2.115,0,0,1-1.5-.622L.621,3.621a2.121,2.121,0,0,1,3-3l.687.687a2.121,2.121,0,0,1-1.5,3.621Z" transform="translate(6.215 6.201)" fill="#365e7d"/>
    </g>
    <path id="Path-16" data-name="Path" d="M7.9,15.438H2.121A2.121,2.121,0,0,1,0,13.317V2.121a2.121,2.121,0,0,1,4.242,0V11.2H7.9a2.121,2.121,0,0,1,0,4.243Z" transform="translate(100.813 72.032)" fill="#2b4d66"/>
    <path id="Path-17" data-name="Path" d="M14.881,15.431H3.146A3.146,3.146,0,0,1,0,12.285V3.146A3.146,3.146,0,0,1,3.146,0H14.881a3.146,3.146,0,0,1,3.146,3.146v9.139A3.146,3.146,0,0,1,14.881,15.431Z" transform="translate(48.379 45.514)" fill="#b57ad2"/>
    <path id="Path-18" data-name="Path" d="M5.394,0H0A3.146,3.146,0,0,1,3.146,3.146v9.139A3.146,3.146,0,0,1,0,15.431H5.394A3.146,3.146,0,0,0,8.54,12.285V3.146A3.146,3.146,0,0,0,5.394,0Z" transform="translate(57.866 45.514)" fill="#d1b4e0"/>
  </g>
</svg>
